<?xml version="1.0" encoding="UTF-8" standalone="no"?>
<!DOCTYPE svg PUBLIC "-//W3C//DTD SVG 1.1//EN"
 "http://www.w3.org/Graphics/SVG/1.1/DTD/svg11.dtd">
<!-- Generated by graphviz version 2.40.1 (20161225.0304)
 -->
<!-- Title: G Pages: 1 -->
<svg width="706pt" height="2786pt"
 viewBox="0.00 0.00 706.27 2786.00" xmlns="http://www.w3.org/2000/svg" xmlns:xlink="http://www.w3.org/1999/xlink">
<g id="graph0" class="graph" transform="scale(1 1) rotate(0) translate(4 2782)">
<title>G</title>
<polygon fill="#ffffff" stroke="transparent" points="-4,4 -4,-2782 702.272,-2782 702.272,4 -4,4"/>
<g id="clust1" class="cluster">
<title>cluster_Global</title>
<path fill="none" stroke="#c0c0c0" d="M20,-44C20,-44 678.272,-44 678.272,-44 684.272,-44 690.272,-50 690.272,-56 690.272,-56 690.272,-2758 690.272,-2758 690.272,-2764 684.272,-2770 678.272,-2770 678.272,-2770 20,-2770 20,-2770 14,-2770 8,-2764 8,-2758 8,-2758 8,-56 8,-56 8,-50 14,-44 20,-44"/>
<text text-anchor="middle" x="349.136" y="-2757.2" font-family="Times,serif" font-size="11.00" fill="#c0c0c0">Global</text>
</g>
<g id="clust2" class="cluster">
<title>cluster_\Fangcloud</title>
<path fill="none" stroke="#c0c0c0" d="M28,-52C28,-52 670.272,-52 670.272,-52 676.272,-52 682.272,-58 682.272,-64 682.272,-64 682.272,-2731 682.272,-2731 682.272,-2737 676.272,-2743 670.272,-2743 670.272,-2743 28,-2743 28,-2743 22,-2743 16,-2737 16,-2731 16,-2731 16,-64 16,-64 16,-58 22,-52 28,-52"/>
<text text-anchor="middle" x="349.136" y="-2730.2" font-family="Times,serif" font-size="11.00" fill="#c0c0c0">Fangcloud</text>
</g>
<g id="clust3" class="cluster">
<title>cluster_\Fangcloud\Api</title>
<path fill="none" stroke="#c0c0c0" d="M226.3167,-2057C226.3167,-2057 620.7639,-2057 620.7639,-2057 626.7639,-2057 632.7639,-2063 632.7639,-2069 632.7639,-2069 632.7639,-2704 632.7639,-2704 632.7639,-2710 626.7639,-2716 620.7639,-2716 620.7639,-2716 226.3167,-2716 226.3167,-2716 220.3167,-2716 214.3167,-2710 214.3167,-2704 214.3167,-2704 214.3167,-2069 214.3167,-2069 214.3167,-2063 220.3167,-2057 226.3167,-2057"/>
<text text-anchor="middle" x="423.5403" y="-2703.2" font-family="Times,serif" font-size="11.00" fill="#c0c0c0">Api</text>
</g>
<g id="clust4" class="cluster">
<title>cluster_\Fangcloud\Api\Collab</title>
<path fill="none" stroke="#c0c0c0" d="M495.8462,-2618C495.8462,-2618 602.8623,-2618 602.8623,-2618 608.8623,-2618 614.8623,-2624 614.8623,-2630 614.8623,-2630 614.8623,-2677 614.8623,-2677 614.8623,-2683 608.8623,-2689 602.8623,-2689 602.8623,-2689 495.8462,-2689 495.8462,-2689 489.8462,-2689 483.8462,-2683 483.8462,-2677 483.8462,-2677 483.8462,-2630 483.8462,-2630 483.8462,-2624 489.8462,-2618 495.8462,-2618"/>
<text text-anchor="middle" x="549.3542" y="-2676.2" font-family="Times,serif" font-size="11.00" fill="#c0c0c0">Collab</text>
</g>
<g id="clust5" class="cluster">
<title>cluster_\Fangcloud\Api\Comment</title>
<path fill="none" stroke="#c0c0c0" d="M492.5457,-2539C492.5457,-2539 606.1628,-2539 606.1628,-2539 612.1628,-2539 618.1628,-2545 618.1628,-2551 618.1628,-2551 618.1628,-2598 618.1628,-2598 618.1628,-2604 612.1628,-2610 606.1628,-2610 606.1628,-2610 492.5457,-2610 492.5457,-2610 486.5457,-2610 480.5457,-2604 480.5457,-2598 480.5457,-2598 480.5457,-2551 480.5457,-2551 480.5457,-2545 486.5457,-2539 492.5457,-2539"/>
<text text-anchor="middle" x="549.3542" y="-2597.2" font-family="Times,serif" font-size="11.00" fill="#c0c0c0">Comment</text>
</g>
<g id="clust6" class="cluster">
<title>cluster_\Fangcloud\Api\File</title>
<path fill="none" stroke="#c0c0c0" d="M502.4473,-2460C502.4473,-2460 596.2612,-2460 596.2612,-2460 602.2612,-2460 608.2612,-2466 608.2612,-2472 608.2612,-2472 608.2612,-2519 608.2612,-2519 608.2612,-2525 602.2612,-2531 596.2612,-2531 596.2612,-2531 502.4473,-2531 502.4473,-2531 496.4473,-2531 490.4473,-2525 490.4473,-2519 490.4473,-2519 490.4473,-2472 490.4473,-2472 490.4473,-2466 496.4473,-2460 502.4473,-2460"/>
<text text-anchor="middle" x="549.3542" y="-2518.2" font-family="Times,serif" font-size="11.00" fill="#c0c0c0">File</text>
</g>
<g id="clust7" class="cluster">
<title>cluster_\Fangcloud\Api\Folder</title>
<path fill="none" stroke="#c0c0c0" d="M495.8462,-2381C495.8462,-2381 602.8623,-2381 602.8623,-2381 608.8623,-2381 614.8623,-2387 614.8623,-2393 614.8623,-2393 614.8623,-2440 614.8623,-2440 614.8623,-2446 608.8623,-2452 602.8623,-2452 602.8623,-2452 495.8462,-2452 495.8462,-2452 489.8462,-2452 483.8462,-2446 483.8462,-2440 483.8462,-2440 483.8462,-2393 483.8462,-2393 483.8462,-2387 489.8462,-2381 495.8462,-2381"/>
<text text-anchor="middle" x="549.3542" y="-2439.2" font-family="Times,serif" font-size="11.00" fill="#c0c0c0">Folder</text>
</g>
<g id="clust8" class="cluster">
<title>cluster_\Fangcloud\Api\Item</title>
<path fill="none" stroke="#c0c0c0" d="M502.4473,-2302C502.4473,-2302 596.2612,-2302 596.2612,-2302 602.2612,-2302 608.2612,-2308 608.2612,-2314 608.2612,-2314 608.2612,-2361 608.2612,-2361 608.2612,-2367 602.2612,-2373 596.2612,-2373 596.2612,-2373 502.4473,-2373 502.4473,-2373 496.4473,-2373 490.4473,-2367 490.4473,-2361 490.4473,-2361 490.4473,-2314 490.4473,-2314 490.4473,-2308 496.4473,-2302 502.4473,-2302"/>
<text text-anchor="middle" x="549.3542" y="-2360.2" font-family="Times,serif" font-size="11.00" fill="#c0c0c0">Item</text>
</g>
<g id="clust9" class="cluster">
<title>cluster_\Fangcloud\Api\ShareLink</title>
<path fill="none" stroke="#c0c0c0" d="M485.9446,-2223C485.9446,-2223 612.7639,-2223 612.7639,-2223 618.7639,-2223 624.7639,-2229 624.7639,-2235 624.7639,-2235 624.7639,-2282 624.7639,-2282 624.7639,-2288 618.7639,-2294 612.7639,-2294 612.7639,-2294 485.9446,-2294 485.9446,-2294 479.9446,-2294 473.9446,-2288 473.9446,-2282 473.9446,-2282 473.9446,-2235 473.9446,-2235 473.9446,-2229 479.9446,-2223 485.9446,-2223"/>
<text text-anchor="middle" x="549.3542" y="-2281.2" font-family="Times,serif" font-size="11.00" fill="#c0c0c0">ShareLink</text>
</g>
<g id="clust10" class="cluster">
<title>cluster_\Fangcloud\Api\Trash</title>
<path fill="none" stroke="#c0c0c0" d="M499.1467,-2144C499.1467,-2144 599.5618,-2144 599.5618,-2144 605.5618,-2144 611.5618,-2150 611.5618,-2156 611.5618,-2156 611.5618,-2203 611.5618,-2203 611.5618,-2209 605.5618,-2215 599.5618,-2215 599.5618,-2215 499.1467,-2215 499.1467,-2215 493.1467,-2215 487.1467,-2209 487.1467,-2203 487.1467,-2203 487.1467,-2156 487.1467,-2156 487.1467,-2150 493.1467,-2144 499.1467,-2144"/>
<text text-anchor="middle" x="549.3542" y="-2202.2" font-family="Times,serif" font-size="11.00" fill="#c0c0c0">Trash</text>
</g>
<g id="clust11" class="cluster">
<title>cluster_\Fangcloud\Api\User</title>
<path fill="none" stroke="#c0c0c0" d="M502.4473,-2065C502.4473,-2065 596.2612,-2065 596.2612,-2065 602.2612,-2065 608.2612,-2071 608.2612,-2077 608.2612,-2077 608.2612,-2124 608.2612,-2124 608.2612,-2130 602.2612,-2136 596.2612,-2136 596.2612,-2136 502.4473,-2136 502.4473,-2136 496.4473,-2136 490.4473,-2130 490.4473,-2124 490.4473,-2124 490.4473,-2077 490.4473,-2077 490.4473,-2071 496.4473,-2065 502.4473,-2065"/>
<text text-anchor="middle" x="549.3542" y="-2123.2" font-family="Times,serif" font-size="11.00" fill="#c0c0c0">User</text>
</g>
<g id="clust12" class="cluster">
<title>cluster_\Fangcloud\Authentication</title>
<path fill="none" stroke="#c0c0c0" d="M509.0483,-1978C509.0483,-1978 589.6602,-1978 589.6602,-1978 595.6602,-1978 601.6602,-1984 601.6602,-1990 601.6602,-1990 601.6602,-2037 601.6602,-2037 601.6602,-2043 595.6602,-2049 589.6602,-2049 589.6602,-2049 509.0483,-2049 509.0483,-2049 503.0483,-2049 497.0483,-2043 497.0483,-2037 497.0483,-2037 497.0483,-1990 497.0483,-1990 497.0483,-1984 503.0483,-1978 509.0483,-1978"/>
<text text-anchor="middle" x="549.3542" y="-2036.2" font-family="Times,serif" font-size="11.00" fill="#c0c0c0">Authentication</text>
</g>
<g id="clust13" class="cluster">
<title>cluster_\Fangcloud\Constant</title>
<path fill="none" stroke="#c0c0c0" d="M246.1199,-1791C246.1199,-1791 612.7639,-1791 612.7639,-1791 618.7639,-1791 624.7639,-1797 624.7639,-1803 624.7639,-1803 624.7639,-1958 624.7639,-1958 624.7639,-1964 618.7639,-1970 612.7639,-1970 612.7639,-1970 246.1199,-1970 246.1199,-1970 240.1199,-1970 234.1199,-1964 234.1199,-1958 234.1199,-1958 234.1199,-1803 234.1199,-1803 234.1199,-1797 240.1199,-1791 246.1199,-1791"/>
<text text-anchor="middle" x="429.4419" y="-1957.2" font-family="Times,serif" font-size="11.00" fill="#c0c0c0">Constant</text>
</g>
<g id="clust14" class="cluster">
<title>cluster_\Fangcloud\Download</title>
<path fill="none" stroke="#c0c0c0" d="M505.7478,-1712C505.7478,-1712 592.9607,-1712 592.9607,-1712 598.9607,-1712 604.9607,-1718 604.9607,-1724 604.9607,-1724 604.9607,-1771 604.9607,-1771 604.9607,-1777 598.9607,-1783 592.9607,-1783 592.9607,-1783 505.7478,-1783 505.7478,-1783 499.7478,-1783 493.7478,-1777 493.7478,-1771 493.7478,-1771 493.7478,-1724 493.7478,-1724 493.7478,-1718 499.7478,-1712 505.7478,-1712"/>
<text text-anchor="middle" x="549.3542" y="-1770.2" font-family="Times,serif" font-size="11.00" fill="#c0c0c0">Download</text>
</g>
<g id="clust15" class="cluster">
<title>cluster_\Fangcloud\Exception</title>
<path fill="none" stroke="#c0c0c0" d="M229.6172,-1309C229.6172,-1309 662.272,-1309 662.272,-1309 668.272,-1309 674.272,-1315 674.272,-1321 674.272,-1321 674.272,-1692 674.272,-1692 674.272,-1698 668.272,-1704 662.272,-1704 662.272,-1704 229.6172,-1704 229.6172,-1704 223.6172,-1704 217.6172,-1698 217.6172,-1692 217.6172,-1692 217.6172,-1321 217.6172,-1321 217.6172,-1315 223.6172,-1309 229.6172,-1309"/>
<text text-anchor="middle" x="445.9446" y="-1691.2" font-family="Times,serif" font-size="11.00" fill="#c0c0c0">Exception</text>
</g>
<g id="clust16" class="cluster">
<title>cluster_\Fangcloud\Http</title>
<path fill="none" stroke="#c0c0c0" d="M489.2451,-1122C489.2451,-1122 609.4634,-1122 609.4634,-1122 615.4634,-1122 621.4634,-1128 621.4634,-1134 621.4634,-1134 621.4634,-1289 621.4634,-1289 621.4634,-1295 615.4634,-1301 609.4634,-1301 609.4634,-1301 489.2451,-1301 489.2451,-1301 483.2451,-1301 477.2451,-1295 477.2451,-1289 477.2451,-1289 477.2451,-1134 477.2451,-1134 477.2451,-1128 483.2451,-1122 489.2451,-1122"/>
<text text-anchor="middle" x="549.3542" y="-1288.2" font-family="Times,serif" font-size="11.00" fill="#c0c0c0">Http</text>
</g>
<g id="clust17" class="cluster">
<title>cluster_\Fangcloud\HttpClient</title>
<path fill="none" stroke="#c0c0c0" d="M36,-962C36,-962 624.0645,-962 624.0645,-962 630.0645,-962 636.0645,-968 636.0645,-974 636.0645,-974 636.0645,-1102 636.0645,-1102 636.0645,-1108 630.0645,-1114 624.0645,-1114 624.0645,-1114 36,-1114 36,-1114 30,-1114 24,-1108 24,-1102 24,-1102 24,-974 24,-974 24,-968 30,-962 36,-962"/>
<text text-anchor="middle" x="330.0322" y="-1101.2" font-family="Times,serif" font-size="11.00" fill="#c0c0c0">HttpClient</text>
</g>
<g id="clust18" class="cluster">
<title>cluster_\Fangcloud\HttpClient\Guzzle</title>
<path fill="none" stroke="#c0c0c0" d="M482.644,-1016C482.644,-1016 616.0645,-1016 616.0645,-1016 622.0645,-1016 628.0645,-1022 628.0645,-1028 628.0645,-1028 628.0645,-1075 628.0645,-1075 628.0645,-1081 622.0645,-1087 616.0645,-1087 616.0645,-1087 482.644,-1087 482.644,-1087 476.644,-1087 470.644,-1081 470.644,-1075 470.644,-1075 470.644,-1028 470.644,-1028 470.644,-1022 476.644,-1016 482.644,-1016"/>
<text text-anchor="middle" x="549.3542" y="-1074.2" font-family="Times,serif" font-size="11.00" fill="#c0c0c0">Guzzle</text>
</g>
<g id="clust19" class="cluster">
<title>cluster_\Fangcloud\PersistentData</title>
<path fill="none" stroke="#c0c0c0" d="M209.814,-775C209.814,-775 655.6709,-775 655.6709,-775 661.6709,-775 667.6709,-781 667.6709,-787 667.6709,-787 667.6709,-942 667.6709,-942 667.6709,-948 661.6709,-954 655.6709,-954 655.6709,-954 209.814,-954 209.814,-954 203.814,-954 197.814,-948 197.814,-942 197.814,-942 197.814,-787 197.814,-787 197.814,-781 203.814,-775 209.814,-775"/>
<text text-anchor="middle" x="432.7424" y="-941.2" font-family="Times,serif" font-size="11.00" fill="#c0c0c0">PersistentData</text>
</g>
<g id="clust20" class="cluster">
<title>cluster_\Fangcloud\RandomString</title>
<path fill="none" stroke="#c0c0c0" d="M209.814,-426C209.814,-426 658.9714,-426 658.9714,-426 664.9714,-426 670.9714,-432 670.9714,-438 670.9714,-438 670.9714,-755 670.9714,-755 670.9714,-761 664.9714,-767 658.9714,-767 658.9714,-767 209.814,-767 209.814,-767 203.814,-767 197.814,-761 197.814,-755 197.814,-755 197.814,-438 197.814,-438 197.814,-432 203.814,-426 209.814,-426"/>
<text text-anchor="middle" x="434.3927" y="-754.2" font-family="Times,serif" font-size="11.00" fill="#c0c0c0">RandomString</text>
</g>
<g id="clust21" class="cluster">
<title>cluster_\Fangcloud\Upload</title>
<path fill="none" stroke="#c0c0c0" d="M522.2505,-347C522.2505,-347 576.458,-347 576.458,-347 582.458,-347 588.458,-353 588.458,-359 588.458,-359 588.458,-406 588.458,-406 588.458,-412 582.458,-418 576.458,-418 576.458,-418 522.2505,-418 522.2505,-418 516.2505,-418 510.2505,-412 510.2505,-406 510.2505,-406 510.2505,-359 510.2505,-359 510.2505,-353 516.2505,-347 522.2505,-347"/>
<text text-anchor="middle" x="549.3542" y="-405.2" font-family="Times,serif" font-size="11.00" fill="#c0c0c0">Upload</text>
</g>
<g id="clust22" class="cluster">
<title>cluster_\Fangcloud\Util</title>
<path fill="none" stroke="#c0c0c0" d="M518.95,-268C518.95,-268 579.7585,-268 579.7585,-268 585.7585,-268 591.7585,-274 591.7585,-280 591.7585,-280 591.7585,-327 591.7585,-327 591.7585,-333 585.7585,-339 579.7585,-339 579.7585,-339 518.95,-339 518.95,-339 512.95,-339 506.95,-333 506.95,-327 506.95,-327 506.95,-280 506.95,-280 506.95,-274 512.95,-268 518.95,-268"/>
<text text-anchor="middle" x="549.3542" y="-326.2" font-family="Times,serif" font-size="11.00" fill="#c0c0c0">Util</text>
</g>
<!-- \\Fangcloud\\Api\\Collab\\YfyCollabClient -->
<g id="node1" class="node">
<title>\\Fangcloud\\Api\\Collab\\YfyCollabClient</title>
<polygon fill="none" stroke="#000000" points="606.8704,-2662 491.8381,-2662 491.8381,-2626 606.8704,-2626 606.8704,-2662"/>
<text text-anchor="middle" x="549.3542" y="-2640.7" font-family="Courier,monospace" font-size="11.00" fill="#000000">YfyCollabClient</text>
</g>
<!-- \\Fangcloud\\Api\\YfyBaseApiClient -->
<g id="node9" class="node">
<title>\\Fangcloud\\Api\\YfyBaseApiClient</title>
<polygon fill="none" stroke="#000000" points="343.743,-2385 222.5075,-2385 222.5075,-2349 343.743,-2349 343.743,-2385"/>
<text text-anchor="start" x="250.1199" y="-2369.2" font-family="Courier,monospace" font-size="11.00" fill="#000000">«abstract»</text>
<text text-anchor="start" x="230.3167" y="-2358.2" font-family="Courier,monospace" font-size="11.00" fill="#000000">YfyBaseApiClient</text>
</g>
<!-- \\Fangcloud\\Api\\Collab\\YfyCollabClient&#45;&gt;\\Fangcloud\\Api\\YfyBaseApiClient -->
<g id="edge1" class="edge">
<title>\\Fangcloud\\Api\\Collab\\YfyCollabClient&#45;&gt;\\Fangcloud\\Api\\YfyBaseApiClient</title>
<path fill="none" stroke="#000000" d="M491.6548,-2638.2718C471.4222,-2634.0301 449.5083,-2626.6875 432.4365,-2614 355.1432,-2556.557 309.7514,-2446.1536 291.9245,-2394.6829"/>
<polygon fill="none" stroke="#000000" points="295.2405,-2393.5626 288.7254,-2385.2076 288.6083,-2395.8018 295.2405,-2393.5626"/>
</g>
<!-- \\Fangcloud\\Api\\Comment\\YfyCommentClient -->
<g id="node2" class="node">
<title>\\Fangcloud\\Api\\Comment\\YfyCommentClient</title>
<polygon fill="none" stroke="#000000" points="609.972,-2583 488.7365,-2583 488.7365,-2547 609.972,-2547 609.972,-2583"/>
<text text-anchor="middle" x="549.3542" y="-2561.7" font-family="Courier,monospace" font-size="11.00" fill="#000000">YfyCommentClient</text>
</g>
<!-- \\Fangcloud\\Api\\Comment\\YfyCommentClient&#45;&gt;\\Fangcloud\\Api\\YfyBaseApiClient -->
<g id="edge2" class="edge">
<title>\\Fangcloud\\Api\\Comment\\YfyCommentClient&#45;&gt;\\Fangcloud\\Api\\YfyBaseApiClient</title>
<path fill="none" stroke="#000000" d="M488.6552,-2556.5578C469.6995,-2552.0988 449.343,-2545.312 432.4365,-2535 373.0113,-2498.7539 323.9052,-2431.45 299.5908,-2393.9699"/>
<polygon fill="none" stroke="#000000" points="302.2776,-2391.6733 293.9521,-2385.1207 296.3742,-2395.435 302.2776,-2391.6733"/>
</g>
<!-- \\Fangcloud\\Api\\File\\YfyFileClient -->
<g id="node3" class="node">
<title>\\Fangcloud\\Api\\File\\YfyFileClient</title>
<polygon fill="none" stroke="#000000" points="600.1684,-2504 498.5401,-2504 498.5401,-2468 600.1684,-2468 600.1684,-2504"/>
<text text-anchor="middle" x="549.3542" y="-2482.7" font-family="Courier,monospace" font-size="11.00" fill="#000000">YfyFileClient</text>
</g>
<!-- \\Fangcloud\\Api\\File\\YfyFileClient&#45;&gt;\\Fangcloud\\Api\\YfyBaseApiClient -->
<g id="edge3" class="edge">
<title>\\Fangcloud\\Api\\File\\YfyFileClient&#45;&gt;\\Fangcloud\\Api\\YfyBaseApiClient</title>
<path fill="none" stroke="#000000" d="M498.2568,-2476.2318C477.4054,-2471.3935 453.3317,-2464.6955 432.4365,-2456 390.5223,-2438.5575 346.3081,-2410.8808 316.9713,-2391.0215"/>
<polygon fill="none" stroke="#000000" points="318.5923,-2387.8897 308.3634,-2385.1292 314.6383,-2393.666 318.5923,-2387.8897"/>
</g>
<!-- \\Fangcloud\\Api\\Folder\\YfyFolderClient -->
<g id="node4" class="node">
<title>\\Fangcloud\\Api\\Folder\\YfyFolderClient</title>
<polygon fill="none" stroke="#000000" points="606.8704,-2425 491.8381,-2425 491.8381,-2389 606.8704,-2389 606.8704,-2425"/>
<text text-anchor="middle" x="549.3542" y="-2403.7" font-family="Courier,monospace" font-size="11.00" fill="#000000">YfyFolderClient</text>
</g>
<!-- \\Fangcloud\\Api\\Folder\\YfyFolderClient&#45;&gt;\\Fangcloud\\Api\\YfyBaseApiClient -->
<g id="edge4" class="edge">
<title>\\Fangcloud\\Api\\Folder\\YfyFolderClient&#45;&gt;\\Fangcloud\\Api\\YfyBaseApiClient</title>
<path fill="none" stroke="#000000" d="M491.5865,-2398.3206C451.2363,-2392.2581 397.1138,-2384.1264 354.1289,-2377.6681"/>
<polygon fill="none" stroke="#000000" points="354.4274,-2374.1737 344.0184,-2376.149 353.3873,-2381.096 354.4274,-2374.1737"/>
</g>
<!-- \\Fangcloud\\Api\\Item\\YfyItemClient -->
<g id="node5" class="node">
<title>\\Fangcloud\\Api\\Item\\YfyItemClient</title>
<polygon fill="none" stroke="#000000" points="600.1684,-2346 498.5401,-2346 498.5401,-2310 600.1684,-2310 600.1684,-2346"/>
<text text-anchor="middle" x="549.3542" y="-2324.7" font-family="Courier,monospace" font-size="11.00" fill="#000000">YfyItemClient</text>
</g>
<!-- \\Fangcloud\\Api\\Item\\YfyItemClient&#45;&gt;\\Fangcloud\\Api\\YfyBaseApiClient -->
<g id="edge5" class="edge">
<title>\\Fangcloud\\Api\\Item\\YfyItemClient&#45;&gt;\\Fangcloud\\Api\\YfyBaseApiClient</title>
<path fill="none" stroke="#000000" d="M498.3376,-2335.4734C457.35,-2341.4777 399.3251,-2349.9778 353.8523,-2356.6392"/>
<polygon fill="none" stroke="#000000" points="353.1502,-2353.2046 343.7631,-2358.1171 354.1648,-2360.1307 353.1502,-2353.2046"/>
</g>
<!-- \\Fangcloud\\Api\\ShareLink\\YfyShareLinkClient -->
<g id="node6" class="node">
<title>\\Fangcloud\\Api\\ShareLink\\YfyShareLinkClient</title>
<polygon fill="none" stroke="#000000" points="616.6737,-2267 482.0348,-2267 482.0348,-2231 616.6737,-2231 616.6737,-2267"/>
<text text-anchor="middle" x="549.3542" y="-2245.7" font-family="Courier,monospace" font-size="11.00" fill="#000000">YfyShareLinkClient</text>
</g>
<!-- \\Fangcloud\\Api\\ShareLink\\YfyShareLinkClient&#45;&gt;\\Fangcloud\\Api\\YfyBaseApiClient -->
<g id="edge6" class="edge">
<title>\\Fangcloud\\Api\\ShareLink\\YfyShareLinkClient&#45;&gt;\\Fangcloud\\Api\\YfyBaseApiClient</title>
<path fill="none" stroke="#000000" d="M505.3332,-2267.0096C483.354,-2276.1131 456.4051,-2287.4433 432.4365,-2298 398.1254,-2313.112 359.7356,-2330.8719 330.4752,-2344.5889"/>
<polygon fill="none" stroke="#000000" points="328.8763,-2341.473 321.3126,-2348.892 331.852,-2347.8091 328.8763,-2341.473"/>
</g>
<!-- \\Fangcloud\\Api\\Trash\\YfyTrashClient -->
<g id="node7" class="node">
<title>\\Fangcloud\\Api\\Trash\\YfyTrashClient</title>
<polygon fill="none" stroke="#000000" points="603.7701,-2188 494.9384,-2188 494.9384,-2152 603.7701,-2152 603.7701,-2188"/>
<text text-anchor="middle" x="549.3542" y="-2166.7" font-family="Courier,monospace" font-size="11.00" fill="#000000">YfyTrashClient</text>
</g>
<!-- \\Fangcloud\\Api\\Trash\\YfyTrashClient&#45;&gt;\\Fangcloud\\Api\\YfyBaseApiClient -->
<g id="edge7" class="edge">
<title>\\Fangcloud\\Api\\Trash\\YfyTrashClient&#45;&gt;\\Fangcloud\\Api\\YfyBaseApiClient</title>
<path fill="none" stroke="#000000" d="M495.071,-2187.7487C474.5544,-2195.7144 451.5612,-2206.2247 432.4365,-2219 380.3374,-2253.8021 330.9728,-2308.4771 304.1009,-2340.7254"/>
<polygon fill="none" stroke="#000000" points="301.1043,-2338.8585 297.4499,-2348.8032 306.5082,-2343.308 301.1043,-2338.8585"/>
</g>
<!-- \\Fangcloud\\Api\\User\\YfyUserClient -->
<g id="node8" class="node">
<title>\\Fangcloud\\Api\\User\\YfyUserClient</title>
<polygon fill="none" stroke="#000000" points="600.1684,-2109 498.5401,-2109 498.5401,-2073 600.1684,-2073 600.1684,-2109"/>
<text text-anchor="middle" x="549.3542" y="-2087.7" font-family="Courier,monospace" font-size="11.00" fill="#000000">YfyUserClient</text>
</g>
<!-- \\Fangcloud\\Api\\User\\YfyUserClient&#45;&gt;\\Fangcloud\\Api\\YfyBaseApiClient -->
<g id="edge8" class="edge">
<title>\\Fangcloud\\Api\\User\\YfyUserClient&#45;&gt;\\Fangcloud\\Api\\YfyBaseApiClient</title>
<path fill="none" stroke="#000000" d="M498.2858,-2105.0194C476.3722,-2112.8056 451.4863,-2124.1837 432.4365,-2140 364.1637,-2196.6844 315.6035,-2292.6386 294.6513,-2339.5396"/>
<polygon fill="none" stroke="#000000" points="291.4137,-2338.2077 290.6022,-2348.7714 297.8242,-2341.0194 291.4137,-2338.2077"/>
</g>
<!-- \\Fangcloud\\Authentication\\OAuthClient -->
<g id="node10" class="node">
<title>\\Fangcloud\\Authentication\\OAuthClient</title>
<polygon fill="none" stroke="#000000" points="593.4669,-2022 505.2416,-2022 505.2416,-1986 593.4669,-1986 593.4669,-2022"/>
<text text-anchor="middle" x="549.3542" y="-2000.7" font-family="Courier,monospace" font-size="11.00" fill="#000000">OAuthClient</text>
</g>
<!-- \\Fangcloud\\Constant\\Enum -->
<g id="node11" class="node">
<title>\\Fangcloud\\Constant\\Enum</title>
<polygon fill="none" stroke="#000000" points="324.136,-1889 242.1145,-1889 242.1145,-1853 324.136,-1853 324.136,-1889"/>
<text text-anchor="start" x="250.1199" y="-1873.2" font-family="Courier,monospace" font-size="11.00" fill="#000000">«abstract»</text>
<text text-anchor="start" x="269.9231" y="-1862.2" font-family="Courier,monospace" font-size="11.00" fill="#000000">Enum</text>
</g>
<!-- \\Fangcloud\\Constant\\YfyCollabRole -->
<g id="node12" class="node">
<title>\\Fangcloud\\Constant\\YfyCollabRole</title>
<polygon fill="none" stroke="#000000" points="600.1684,-1943 498.5401,-1943 498.5401,-1907 600.1684,-1907 600.1684,-1943"/>
<text text-anchor="middle" x="549.3542" y="-1921.7" font-family="Courier,monospace" font-size="11.00" fill="#000000">YfyCollabRole</text>
</g>
<!-- \\Fangcloud\\Constant\\YfyCollabRole&#45;&gt;\\Fangcloud\\Constant\\Enum -->
<g id="edge9" class="edge">
<title>\\Fangcloud\\Constant\\YfyCollabRole&#45;&gt;\\Fangcloud\\Constant\\Enum</title>
<path fill="none" stroke="#000000" d="M498.3376,-1914.6522C451.2154,-1905.0942 381.5742,-1890.9687 334.3772,-1881.3956"/>
<polygon fill="none" stroke="#000000" points="334.8644,-1877.9232 324.3682,-1879.3654 333.4729,-1884.7835 334.8644,-1877.9232"/>
</g>
<!-- \\Fangcloud\\Constant\\YfyItemType -->
<g id="node13" class="node">
<title>\\Fangcloud\\Constant\\YfyItemType</title>
<polygon fill="none" stroke="#000000" points="593.4669,-1889 505.2416,-1889 505.2416,-1853 593.4669,-1853 593.4669,-1889"/>
<text text-anchor="middle" x="549.3542" y="-1867.7" font-family="Courier,monospace" font-size="11.00" fill="#000000">YfyItemType</text>
</g>
<!-- \\Fangcloud\\Constant\\YfyItemType&#45;&gt;\\Fangcloud\\Constant\\Enum -->
<g id="edge10" class="edge">
<title>\\Fangcloud\\Constant\\YfyItemType&#45;&gt;\\Fangcloud\\Constant\\Enum</title>
<path fill="none" stroke="#000000" d="M505.0931,-1871C458.1597,-1871 384.1057,-1871 334.5979,-1871"/>
<polygon fill="none" stroke="#000000" points="334.4246,-1867.5001 324.4246,-1871 334.4245,-1874.5001 334.4246,-1867.5001"/>
</g>
<!-- \\Fangcloud\\Constant\\YfyShareLinkAccess -->
<g id="node14" class="node">
<title>\\Fangcloud\\Constant\\YfyShareLinkAccess</title>
<polygon fill="none" stroke="#000000" points="616.6737,-1835 482.0348,-1835 482.0348,-1799 616.6737,-1799 616.6737,-1835"/>
<text text-anchor="middle" x="549.3542" y="-1813.7" font-family="Courier,monospace" font-size="11.00" fill="#000000">YfyShareLinkAccess</text>
</g>
<!-- \\Fangcloud\\Constant\\YfyShareLinkAccess&#45;&gt;\\Fangcloud\\Constant\\Enum -->
<g id="edge11" class="edge">
<title>\\Fangcloud\\Constant\\YfyShareLinkAccess&#45;&gt;\\Fangcloud\\Constant\\Enum</title>
<path fill="none" stroke="#000000" d="M481.8293,-1830.6963C436.0039,-1839.9912 376.3527,-1852.0904 334.4102,-1860.5977"/>
<polygon fill="none" stroke="#000000" points="333.519,-1857.2071 324.4143,-1862.6252 334.9105,-1864.0674 333.519,-1857.2071"/>
</g>
<!-- \\Fangcloud\\Download\\DownloadFile -->
<g id="node15" class="node">
<title>\\Fangcloud\\Download\\DownloadFile</title>
<polygon fill="none" stroke="#000000" points="597.0674,-1756 501.6411,-1756 501.6411,-1720 597.0674,-1720 597.0674,-1756"/>
<text text-anchor="middle" x="549.3542" y="-1734.7" font-family="Courier,monospace" font-size="11.00" fill="#000000">DownloadFile</text>
</g>
<!-- \\Fangcloud\\Exception\\YfyAuthorizationRequiredException -->
<g id="node16" class="node">
<title>\\Fangcloud\\Exception\\YfyAuthorizationRequiredException</title>
<polygon fill="none" stroke="#000000" points="666.1898,-1677 432.5187,-1677 432.5187,-1641 666.1898,-1641 666.1898,-1677"/>
<text text-anchor="middle" x="549.3542" y="-1655.7" font-family="Courier,monospace" font-size="11.00" fill="#000000">YfyAuthorizationRequiredException</text>
</g>
<!-- \\Fangcloud\\Exception\\YfySdkException -->
<g id="node21" class="node">
<title>\\Fangcloud\\Exception\\YfySdkException</title>
<polygon fill="none" stroke="#000000" points="340.6414,-1488 225.6091,-1488 225.6091,-1452 340.6414,-1452 340.6414,-1488"/>
<text text-anchor="middle" x="283.1252" y="-1466.7" font-family="Courier,monospace" font-size="11.00" fill="#000000">YfySdkException</text>
</g>
<!-- \\Fangcloud\\Exception\\YfyAuthorizationRequiredException&#45;&gt;\\Fangcloud\\Exception\\YfySdkException -->
<g id="edge12" class="edge">
<title>\\Fangcloud\\Exception\\YfyAuthorizationRequiredException&#45;&gt;\\Fangcloud\\Exception\\YfySdkException</title>
<path fill="none" stroke="#000000" d="M450.9959,-1640.9753C444.5416,-1638.3763 438.29,-1635.4025 432.4365,-1632 373.7538,-1597.8887 324.6802,-1533.223 300.0927,-1496.7556"/>
<polygon fill="none" stroke="#000000" points="302.8181,-1494.5321 294.3782,-1488.1276 296.982,-1498.3975 302.8181,-1494.5321"/>
</g>
<!-- \\Fangcloud\\Exception\\YfyInvalidGrantException -->
<g id="node17" class="node">
<title>\\Fangcloud\\Exception\\YfyInvalidGrantException</title>
<polygon fill="none" stroke="#000000" points="636.7806,-1623 461.9279,-1623 461.9279,-1587 636.7806,-1587 636.7806,-1623"/>
<text text-anchor="middle" x="549.3542" y="-1601.7" font-family="Courier,monospace" font-size="11.00" fill="#000000">YfyInvalidGrantException</text>
</g>
<!-- \\Fangcloud\\Exception\\YfyInvalidGrantException&#45;&gt;\\Fangcloud\\Exception\\YfySdkException -->
<g id="edge13" class="edge">
<title>\\Fangcloud\\Exception\\YfyInvalidGrantException&#45;&gt;\\Fangcloud\\Exception\\YfySdkException</title>
<path fill="none" stroke="#000000" d="M461.8753,-1588.8734C451.7487,-1585.8196 441.7296,-1582.2236 432.4365,-1578 385.5809,-1556.7047 338.6507,-1519.5239 310.2434,-1494.8328"/>
<polygon fill="none" stroke="#000000" points="312.5558,-1492.2054 302.7377,-1488.2234 307.9296,-1497.4589 312.5558,-1492.2054"/>
</g>
<!-- \\Fangcloud\\Exception\\YfyInvalidStateException -->
<g id="node18" class="node">
<title>\\Fangcloud\\Exception\\YfyInvalidStateException</title>
<polygon fill="none" stroke="#000000" points="636.7806,-1569 461.9279,-1569 461.9279,-1533 636.7806,-1533 636.7806,-1569"/>
<text text-anchor="middle" x="549.3542" y="-1547.7" font-family="Courier,monospace" font-size="11.00" fill="#000000">YfyInvalidStateException</text>
</g>
<!-- \\Fangcloud\\Exception\\YfyInvalidStateException&#45;&gt;\\Fangcloud\\Exception\\YfySdkException -->
<g id="edge14" class="edge">
<title>\\Fangcloud\\Exception\\YfyInvalidStateException&#45;&gt;\\Fangcloud\\Exception\\YfySdkException</title>
<path fill="none" stroke="#000000" d="M465.6867,-1532.9668C454.454,-1530.1703 443.126,-1527.1549 432.4365,-1524 400.8644,-1514.6819 366.2568,-1502.3065 338.3161,-1491.7538"/>
<polygon fill="none" stroke="#000000" points="339.3181,-1488.3903 328.7271,-1488.1053 336.8287,-1494.9328 339.3181,-1488.3903"/>
</g>
<!-- \\Fangcloud\\Exception\\YfyInvalidTokenException -->
<g id="node19" class="node">
<title>\\Fangcloud\\Exception\\YfyInvalidTokenException</title>
<polygon fill="none" stroke="#000000" points="636.7806,-1515 461.9279,-1515 461.9279,-1479 636.7806,-1479 636.7806,-1515"/>
<text text-anchor="middle" x="549.3542" y="-1493.7" font-family="Courier,monospace" font-size="11.00" fill="#000000">YfyInvalidTokenException</text>
</g>
<!-- \\Fangcloud\\Exception\\YfyInvalidTokenException&#45;&gt;\\Fangcloud\\Exception\\YfySdkException -->
<g id="edge15" class="edge">
<title>\\Fangcloud\\Exception\\YfyInvalidTokenException&#45;&gt;\\Fangcloud\\Exception\\YfySdkException</title>
<path fill="none" stroke="#000000" d="M461.8122,-1488.1218C425.8276,-1484.4724 384.7901,-1480.3105 351.1249,-1476.8963"/>
<polygon fill="none" stroke="#000000" points="351.2297,-1473.389 340.9276,-1475.8621 350.5234,-1480.3533 351.2297,-1473.389"/>
</g>
<!-- \\Fangcloud\\Exception\\YfyRateLimitException -->
<g id="node20" class="node">
<title>\\Fangcloud\\Exception\\YfyRateLimitException</title>
<polygon fill="none" stroke="#000000" points="626.4773,-1461 472.2312,-1461 472.2312,-1425 626.4773,-1425 626.4773,-1461"/>
<text text-anchor="middle" x="549.3542" y="-1439.7" font-family="Courier,monospace" font-size="11.00" fill="#000000">YfyRateLimitException</text>
</g>
<!-- \\Fangcloud\\Exception\\YfyRateLimitException&#45;&gt;\\Fangcloud\\Exception\\YfySdkException -->
<g id="edge16" class="edge">
<title>\\Fangcloud\\Exception\\YfyRateLimitException&#45;&gt;\\Fangcloud\\Exception\\YfySdkException</title>
<path fill="none" stroke="#000000" d="M471.9922,-1450.8458C433.6817,-1454.7311 387.8513,-1459.3791 350.9314,-1463.1233"/>
<polygon fill="none" stroke="#000000" points="350.3639,-1459.6629 340.7681,-1464.1541 351.0702,-1466.6271 350.3639,-1459.6629"/>
</g>
<!-- \\Exception -->
<g id="node48" class="node">
<title>\\Exception</title>
<ellipse fill="none" stroke="#000000" cx="82.907" cy="-18" rx="40.6162" ry="18"/>
<text text-anchor="middle" x="82.907" y="-13.8" font-family="Times,serif" font-size="14.00" fill="#c0c0c0">xception</text>
</g>
<!-- \\Fangcloud\\Exception\\YfySdkException&#45;&gt;\\Exception -->
<g id="edge17" class="edge">
<title>\\Fangcloud\\Exception\\YfySdkException&#45;&gt;\\Exception</title>
<path fill="none" stroke="#000000" d="M277.8149,-1451.8579C262.8838,-1400.1672 220.1683,-1247.5047 197.814,-1118 124.8213,-695.1344 91.7002,-172.2573 84.4645,-46.2607"/>
<polygon fill="none" stroke="#000000" points="87.9584,-46.0533 83.8974,-36.2677 80.9697,-46.4499 87.9584,-46.0533"/>
</g>
<!-- \\Fangcloud\\Exception\\YfyServerException -->
<g id="node22" class="node">
<title>\\Fangcloud\\Exception\\YfyServerException</title>
<polygon fill="none" stroke="#000000" points="616.6737,-1407 482.0348,-1407 482.0348,-1371 616.6737,-1371 616.6737,-1407"/>
<text text-anchor="middle" x="549.3542" y="-1385.7" font-family="Courier,monospace" font-size="11.00" fill="#000000">YfyServerException</text>
</g>
<!-- \\Fangcloud\\Exception\\YfyServerException&#45;&gt;\\Fangcloud\\Exception\\YfySdkException -->
<g id="edge18" class="edge">
<title>\\Fangcloud\\Exception\\YfyServerException&#45;&gt;\\Fangcloud\\Exception\\YfySdkException</title>
<path fill="none" stroke="#000000" d="M481.9116,-1403.1203C465.6151,-1406.9317 448.3209,-1411.3119 432.4365,-1416 400.8644,-1425.3181 366.2568,-1437.6935 338.3161,-1448.2462"/>
<polygon fill="none" stroke="#000000" points="336.8287,-1445.0672 328.7271,-1451.8947 339.3181,-1451.6097 336.8287,-1445.0672"/>
</g>
<!-- \\Fangcloud\\Exception\\YfyUnauthorizedException -->
<g id="node23" class="node">
<title>\\Fangcloud\\Exception\\YfyUnauthorizedException</title>
<polygon fill="none" stroke="#000000" points="636.7806,-1353 461.9279,-1353 461.9279,-1317 636.7806,-1317 636.7806,-1353"/>
<text text-anchor="middle" x="549.3542" y="-1331.7" font-family="Courier,monospace" font-size="11.00" fill="#000000">YfyUnauthorizedException</text>
</g>
<!-- \\Fangcloud\\Exception\\YfyUnauthorizedException&#45;&gt;\\Fangcloud\\Exception\\YfySdkException -->
<g id="edge19" class="edge">
<title>\\Fangcloud\\Exception\\YfyUnauthorizedException&#45;&gt;\\Fangcloud\\Exception\\YfySdkException</title>
<path fill="none" stroke="#000000" d="M461.8753,-1351.1266C451.7487,-1354.1804 441.7296,-1357.7764 432.4365,-1362 385.5809,-1383.2953 338.6507,-1420.4761 310.2434,-1445.1672"/>
<polygon fill="none" stroke="#000000" points="307.9296,-1442.5411 302.7377,-1451.7766 312.5558,-1447.7946 307.9296,-1442.5411"/>
</g>
<!-- \\Fangcloud\\Http\\YfyRawResponse -->
<g id="node24" class="node">
<title>\\Fangcloud\\Http\\YfyRawResponse</title>
<polygon fill="none" stroke="#000000" points="603.7701,-1274 494.9384,-1274 494.9384,-1238 603.7701,-1238 603.7701,-1274"/>
<text text-anchor="middle" x="549.3542" y="-1252.7" font-family="Courier,monospace" font-size="11.00" fill="#000000">YfyRawResponse</text>
</g>
<!-- \\Fangcloud\\Http\\YfyRequest -->
<g id="node25" class="node">
<title>\\Fangcloud\\Http\\YfyRequest</title>
<polygon fill="none" stroke="#000000" points="590.365,-1220 508.3435,-1220 508.3435,-1184 590.365,-1184 590.365,-1220"/>
<text text-anchor="middle" x="549.3542" y="-1198.7" font-family="Courier,monospace" font-size="11.00" fill="#000000">YfyRequest</text>
</g>
<!-- \\Fangcloud\\Http\\YfyRequestBuilder -->
<g id="node26" class="node">
<title>\\Fangcloud\\Http\\YfyRequestBuilder</title>
<polygon fill="none" stroke="#000000" points="613.5727,-1166 485.1358,-1166 485.1358,-1130 613.5727,-1130 613.5727,-1166"/>
<text text-anchor="middle" x="549.3542" y="-1144.7" font-family="Courier,monospace" font-size="11.00" fill="#000000">YfyRequestBuilder</text>
</g>
<!-- \\Fangcloud\\HttpClient\\Guzzle\\YfyGuzzleHttpClient -->
<g id="node27" class="node">
<title>\\Fangcloud\\HttpClient\\Guzzle\\YfyGuzzleHttpClient</title>
<polygon fill="none" stroke="#000000" points="620.2753,-1060 478.4332,-1060 478.4332,-1024 620.2753,-1024 620.2753,-1060"/>
<text text-anchor="middle" x="549.3542" y="-1038.7" font-family="Courier,monospace" font-size="11.00" fill="#000000">YfyGuzzleHttpClient</text>
</g>
<!-- \\Fangcloud\\HttpClient\\AbstractYfyHttpClient -->
<g id="node28" class="node">
<title>\\Fangcloud\\HttpClient\\AbstractYfyHttpClient</title>
<polygon fill="none" stroke="#000000" points="360.2483,-1060 206.0022,-1060 206.0022,-1024 360.2483,-1024 360.2483,-1060"/>
<text text-anchor="start" x="250.1199" y="-1044.2" font-family="Courier,monospace" font-size="11.00" fill="#000000">«abstract»</text>
<text text-anchor="start" x="213.814" y="-1033.2" font-family="Courier,monospace" font-size="11.00" fill="#000000">AbstractYfyHttpClient</text>
</g>
<!-- \\Fangcloud\\HttpClient\\Guzzle\\YfyGuzzleHttpClient&#45;&gt;\\Fangcloud\\HttpClient\\AbstractYfyHttpClient -->
<g id="edge21" class="edge">
<title>\\Fangcloud\\HttpClient\\Guzzle\\YfyGuzzleHttpClient&#45;&gt;\\Fangcloud\\HttpClient\\AbstractYfyHttpClient</title>
<path fill="none" stroke="#000000" d="M478.3595,-1042C445.273,-1042 405.5863,-1042 370.6605,-1042"/>
<polygon fill="none" stroke="#000000" points="370.4678,-1038.5001 360.4678,-1042 370.4677,-1045.5001 370.4678,-1038.5001"/>
</g>
<!-- \\Fangcloud\\HttpClient\\YfyHttpClient -->
<g id="node30" class="node">
<title>\\Fangcloud\\HttpClient\\YfyHttpClient</title>
<polygon fill="none" stroke="#000000" points="133.7211,-1060 32.0928,-1060 32.0928,-1024 133.7211,-1024 133.7211,-1060"/>
<text text-anchor="middle" x="82.907" y="-1038.7" font-family="Courier,monospace" font-size="11.00" fill="#000000">YfyHttpClient</text>
</g>
<!-- \\Fangcloud\\HttpClient\\AbstractYfyHttpClient&#45;&gt;\\Fangcloud\\HttpClient\\YfyHttpClient -->
<g id="edge20" class="edge">
<title>\\Fangcloud\\HttpClient\\AbstractYfyHttpClient&#45;&gt;\\Fangcloud\\HttpClient\\YfyHttpClient</title>
<path fill="none" stroke="#000000" stroke-dasharray="1,5" d="M206.002,-1042C185.5522,-1042 163.7495,-1042 144.2634,-1042"/>
<polygon fill="none" stroke="#000000" points="144.0028,-1038.5001 134.0028,-1042 144.0027,-1045.5001 144.0028,-1038.5001"/>
</g>
<!-- \\Fangcloud\\HttpClient\\YfyHttpClientFactory -->
<g id="node29" class="node">
<title>\\Fangcloud\\HttpClient\\YfyHttpClientFactory</title>
<polygon fill="none" stroke="#000000" points="623.3757,-1006 475.3328,-1006 475.3328,-970 623.3757,-970 623.3757,-1006"/>
<text text-anchor="middle" x="549.3542" y="-984.7" font-family="Courier,monospace" font-size="11.00" fill="#000000">YfyHttpClientFactory</text>
</g>
<!-- \\Fangcloud\\PersistentData\\NoopPersistentDataHandler -->
<g id="node31" class="node">
<title>\\Fangcloud\\PersistentData\\NoopPersistentDataHandler</title>
<polygon fill="none" stroke="#000000" points="639.8811,-927 458.8274,-927 458.8274,-891 639.8811,-891 639.8811,-927"/>
<text text-anchor="middle" x="549.3542" y="-905.7" font-family="Courier,monospace" font-size="11.00" fill="#000000">NoopPersistentDataHandler</text>
</g>
<!-- \\Fangcloud\\PersistentData\\PersistentDataHandler -->
<g id="node34" class="node">
<title>\\Fangcloud\\PersistentData\\PersistentDataHandler</title>
<polygon fill="none" stroke="#000000" points="360.2483,-873 206.0022,-873 206.0022,-837 360.2483,-837 360.2483,-873"/>
<text text-anchor="middle" x="283.1252" y="-851.7" font-family="Courier,monospace" font-size="11.00" fill="#000000">PersistentDataHandler</text>
</g>
<!-- \\Fangcloud\\PersistentData\\NoopPersistentDataHandler&#45;&gt;\\Fangcloud\\PersistentData\\PersistentDataHandler -->
<g id="edge22" class="edge">
<title>\\Fangcloud\\PersistentData\\NoopPersistentDataHandler&#45;&gt;\\Fangcloud\\PersistentData\\PersistentDataHandler</title>
<path fill="none" stroke="#000000" stroke-dasharray="1,5" d="M460.3337,-890.9437C431.3969,-885.0744 399.3261,-878.5694 370.51,-872.7245"/>
<polygon fill="none" stroke="#000000" points="370.9598,-869.2445 360.4636,-870.6868 369.5682,-876.1048 370.9598,-869.2445"/>
</g>
<!-- \\Fangcloud\\PersistentData\\PersistentDataHandlerFactory -->
<g id="node32" class="node">
<title>\\Fangcloud\\PersistentData\\PersistentDataHandlerFactory</title>
<polygon fill="none" stroke="#000000" points="649.6844,-873 449.0241,-873 449.0241,-837 649.6844,-837 649.6844,-873"/>
<text text-anchor="middle" x="549.3542" y="-851.7" font-family="Courier,monospace" font-size="11.00" fill="#000000">PersistentDataHandlerFactory</text>
</g>
<!-- \\Fangcloud\\PersistentData\\YfySessionPersistentDataHandler -->
<g id="node33" class="node">
<title>\\Fangcloud\\PersistentData\\YfySessionPersistentDataHandler</title>
<polygon fill="none" stroke="#000000" points="659.4879,-819 439.2206,-819 439.2206,-783 659.4879,-783 659.4879,-819"/>
<text text-anchor="middle" x="549.3542" y="-797.7" font-family="Courier,monospace" font-size="11.00" fill="#000000">YfySessionPersistentDataHandler</text>
</g>
<!-- \\Fangcloud\\PersistentData\\YfySessionPersistentDataHandler&#45;&gt;\\Fangcloud\\PersistentData\\PersistentDataHandler -->
<g id="edge23" class="edge">
<title>\\Fangcloud\\PersistentData\\YfySessionPersistentDataHandler&#45;&gt;\\Fangcloud\\PersistentData\\PersistentDataHandler</title>
<path fill="none" stroke="#000000" stroke-dasharray="1,5" d="M460.3337,-819.0563C431.3969,-824.9256 399.3261,-831.4306 370.51,-837.2755"/>
<polygon fill="none" stroke="#000000" points="369.5682,-833.8952 360.4636,-839.3132 370.9598,-840.7555 369.5682,-833.8952"/>
</g>
<!-- \\Fangcloud\\RandomString\\McryptRandomStringGenerator -->
<g id="node35" class="node">
<title>\\Fangcloud\\RandomString\\McryptRandomStringGenerator</title>
<polygon fill="none" stroke="#000000" points="646.5834,-740 452.1251,-740 452.1251,-704 646.5834,-704 646.5834,-740"/>
<text text-anchor="middle" x="549.3542" y="-718.7" font-family="Courier,monospace" font-size="11.00" fill="#000000">McryptRandomStringGenerator</text>
</g>
<!-- \\Fangcloud\\RandomString\\RandomStringGenerator -->
<g id="node40" class="node">
<title>\\Fangcloud\\RandomString\\RandomStringGenerator</title>
<polygon fill="none" stroke="#000000" points="360.2483,-659 206.0022,-659 206.0022,-623 360.2483,-623 360.2483,-659"/>
<text text-anchor="middle" x="283.1252" y="-637.7" font-family="Courier,monospace" font-size="11.00" fill="#000000">RandomStringGenerator</text>
</g>
<!-- \\Fangcloud\\RandomString\\McryptRandomStringGenerator&#45;&gt;\\Fangcloud\\RandomString\\RandomStringGenerator -->
<g id="edge24" class="edge">
<title>\\Fangcloud\\RandomString\\McryptRandomStringGenerator&#45;&gt;\\Fangcloud\\RandomString\\RandomStringGenerator</title>
<path fill="none" stroke="#000000" stroke-dasharray="1,5" d="M465.6867,-703.9668C454.454,-701.1703 443.126,-698.1549 432.4365,-695 400.8644,-685.6819 366.2568,-673.3065 338.3161,-662.7538"/>
<polygon fill="none" stroke="#000000" points="339.3181,-659.3903 328.7271,-659.1053 336.8287,-665.9328 339.3181,-659.3903"/>
</g>
<!-- \\Fangcloud\\RandomString\\OpenSslRandomStringGenerator -->
<g id="node36" class="node">
<title>\\Fangcloud\\RandomString\\OpenSslRandomStringGenerator</title>
<polygon fill="none" stroke="#000000" points="649.6844,-686 449.0241,-686 449.0241,-650 649.6844,-650 649.6844,-686"/>
<text text-anchor="middle" x="549.3542" y="-664.7" font-family="Courier,monospace" font-size="11.00" fill="#000000">OpenSslRandomStringGenerator</text>
</g>
<!-- \\Fangcloud\\RandomString\\OpenSslRandomStringGenerator&#45;&gt;\\Fangcloud\\RandomString\\RandomStringGenerator -->
<g id="edge25" class="edge">
<title>\\Fangcloud\\RandomString\\OpenSslRandomStringGenerator&#45;&gt;\\Fangcloud\\RandomString\\RandomStringGenerator</title>
<path fill="none" stroke="#000000" stroke-dasharray="1,5" d="M448.7045,-657.7925C422.9503,-655.1806 395.4695,-652.3936 370.447,-649.8559"/>
<polygon fill="none" stroke="#000000" points="370.5575,-646.3492 360.2554,-648.8223 369.8512,-653.3135 370.5575,-646.3492"/>
</g>
<!-- \\Fangcloud\\RandomString\\RandomBytesRandomStringGenerator -->
<g id="node37" class="node">
<title>\\Fangcloud\\RandomString\\RandomBytesRandomStringGenerator</title>
<polygon fill="none" stroke="#000000" points="663.0887,-632 435.6198,-632 435.6198,-596 663.0887,-596 663.0887,-632"/>
<text text-anchor="middle" x="549.3542" y="-610.7" font-family="Courier,monospace" font-size="11.00" fill="#000000">RandomBytesRandomStringGenerator</text>
</g>
<!-- \\Fangcloud\\RandomString\\RandomBytesRandomStringGenerator&#45;&gt;\\Fangcloud\\RandomString\\RandomStringGenerator -->
<g id="edge26" class="edge">
<title>\\Fangcloud\\RandomString\\RandomBytesRandomStringGenerator&#45;&gt;\\Fangcloud\\RandomString\\RandomStringGenerator</title>
<path fill="none" stroke="#000000" stroke-dasharray="1,5" d="M435.677,-625.5287C413.8152,-627.7459 391.2386,-630.0355 370.3746,-632.1515"/>
<polygon fill="none" stroke="#000000" points="369.8763,-628.684 360.2805,-633.1752 370.5827,-635.6482 369.8763,-628.684"/>
</g>
<!-- \\Fangcloud\\RandomString\\RandomStringGeneratorFactory -->
<g id="node38" class="node">
<title>\\Fangcloud\\RandomString\\RandomStringGeneratorFactory</title>
<polygon fill="none" stroke="#000000" points="649.6844,-578 449.0241,-578 449.0241,-542 649.6844,-542 649.6844,-578"/>
<text text-anchor="middle" x="549.3542" y="-556.7" font-family="Courier,monospace" font-size="11.00" fill="#000000">RandomStringGeneratorFactory</text>
</g>
<!-- \\Fangcloud\\RandomString\\UrandomRandomStringGenerator -->
<g id="node39" class="node">
<title>\\Fangcloud\\RandomString\\UrandomRandomStringGenerator</title>
<polygon fill="none" stroke="#000000" points="649.6844,-524 449.0241,-524 449.0241,-488 649.6844,-488 649.6844,-524"/>
<text text-anchor="middle" x="549.3542" y="-502.7" font-family="Courier,monospace" font-size="11.00" fill="#000000">UrandomRandomStringGenerator</text>
</g>
<!-- \\Fangcloud\\RandomString\\UrandomRandomStringGenerator&#45;&gt;\\Fangcloud\\RandomString\\RandomStringGenerator -->
<g id="edge27" class="edge">
<title>\\Fangcloud\\RandomString\\UrandomRandomStringGenerator&#45;&gt;\\Fangcloud\\RandomString\\RandomStringGenerator</title>
<path fill="none" stroke="#000000" stroke-dasharray="1,5" d="M455.694,-524.0648C447.6895,-526.6743 439.8331,-529.6383 432.4365,-533 385.5809,-554.2953 338.6507,-591.4761 310.2434,-616.1672"/>
<polygon fill="none" stroke="#000000" points="307.9296,-613.5411 302.7377,-622.7766 312.5558,-618.7946 307.9296,-613.5411"/>
</g>
<!-- \\Fangcloud\\RandomString\\RandomStringGeneratorTrait -->
<g id="node41" class="node">
<title>\\Fangcloud\\RandomString\\RandomStringGeneratorTrait</title>
<polygon fill="none" stroke="#000000" points="642.9825,-470 455.726,-470 455.726,-434 642.9825,-434 642.9825,-470"/>
<text text-anchor="middle" x="549.3542" y="-448.7" font-family="Courier,monospace" font-size="11.00" fill="#000000">RandomStringGeneratorTrait</text>
</g>
<!-- \\Fangcloud\\Upload\\YfyFile -->
<g id="node42" class="node">
<title>\\Fangcloud\\Upload\\YfyFile</title>
<polygon fill="none" stroke="#000000" points="580.5621,-391 518.1464,-391 518.1464,-355 580.5621,-355 580.5621,-391"/>
<text text-anchor="middle" x="549.3542" y="-369.7" font-family="Courier,monospace" font-size="11.00" fill="#000000">YfyFile</text>
</g>
<!-- \\Fangcloud\\Util\\HttpUtil -->
<g id="node43" class="node">
<title>\\Fangcloud\\Util\\HttpUtil</title>
<polygon fill="none" stroke="#000000" points="583.6631,-312 515.0454,-312 515.0454,-276 583.6631,-276 583.6631,-312"/>
<text text-anchor="middle" x="549.3542" y="-290.7" font-family="Courier,monospace" font-size="11.00" fill="#000000">HttpUtil</text>
</g>
<!-- \\Fangcloud\\YfyAppInfo -->
<g id="node44" class="node">
<title>\\Fangcloud\\YfyAppInfo</title>
<polygon fill="none" stroke="#000000" points="590.365,-258 508.3435,-258 508.3435,-222 590.365,-222 590.365,-258"/>
<text text-anchor="middle" x="549.3542" y="-236.7" font-family="Courier,monospace" font-size="11.00" fill="#000000">YfyAppInfo</text>
</g>
<!-- \\Fangcloud\\YfyClient -->
<g id="node45" class="node">
<title>\\Fangcloud\\YfyClient</title>
<polygon fill="none" stroke="#000000" points="587.265,-204 511.4435,-204 511.4435,-168 587.265,-168 587.265,-204"/>
<text text-anchor="middle" x="549.3542" y="-182.7" font-family="Courier,monospace" font-size="11.00" fill="#000000">YfyClient</text>
</g>
<!-- \\Fangcloud\\YfyClientOptions -->
<g id="node46" class="node">
<title>\\Fangcloud\\YfyClientOptions</title>
<polygon fill="none" stroke="#000000" points="609.972,-150 488.7365,-150 488.7365,-114 609.972,-114 609.972,-150"/>
<text text-anchor="middle" x="549.3542" y="-128.7" font-family="Courier,monospace" font-size="11.00" fill="#000000">YfyClientOptions</text>
</g>
<!-- \\Fangcloud\\YfyContext -->
<g id="node47" class="node">
<title>\\Fangcloud\\YfyContext</title>
<polygon fill="none" stroke="#000000" points="590.365,-96 508.3435,-96 508.3435,-60 590.365,-60 590.365,-96"/>
<text text-anchor="middle" x="549.3542" y="-74.7" font-family="Courier,monospace" font-size="11.00" fill="#000000">YfyContext</text>
</g>
</g>
</svg>
