<?xml version="1.0" encoding="UTF-8" standalone="no"?>
<!DOCTYPE svg PUBLIC "-//W3C//DTD SVG 1.1//EN"
 "http://www.w3.org/Graphics/SVG/1.1/DTD/svg11.dtd">
<!-- Generated by graphviz version 2.40.1 (20161225.0304)
 -->
<!-- Title: G Pages: 1 -->
<svg width="706pt" height="2545pt"
 viewBox="0.00 0.00 706.27 2545.00" xmlns="http://www.w3.org/2000/svg" xmlns:xlink="http://www.w3.org/1999/xlink">
<g id="graph0" class="graph" transform="scale(1 1) rotate(0) translate(4 2541)">
<title>G</title>
<polygon fill="#ffffff" stroke="transparent" points="-4,4 -4,-2541 702.272,-2541 702.272,4 -4,4"/>
<g id="clust1" class="cluster">
<title>cluster_Global</title>
<path fill="none" stroke="#c0c0c0" d="M20,-44C20,-44 678.272,-44 678.272,-44 684.272,-44 690.272,-50 690.272,-56 690.272,-56 690.272,-2517 690.272,-2517 690.272,-2523 684.272,-2529 678.272,-2529 678.272,-2529 20,-2529 20,-2529 14,-2529 8,-2523 8,-2517 8,-2517 8,-56 8,-56 8,-50 14,-44 20,-44"/>
<text text-anchor="middle" x="349.136" y="-2516.2" font-family="Times,serif" font-size="11.00" fill="#c0c0c0">Global</text>
</g>
<g id="clust2" class="cluster">
<title>cluster_\Fangcloud</title>
<path fill="none" stroke="#c0c0c0" d="M28,-52C28,-52 670.272,-52 670.272,-52 676.272,-52 682.272,-58 682.272,-64 682.272,-64 682.272,-2490 682.272,-2490 682.272,-2496 676.272,-2502 670.272,-2502 670.272,-2502 28,-2502 28,-2502 22,-2502 16,-2496 16,-2490 16,-2490 16,-64 16,-64 16,-58 22,-52 28,-52"/>
<text text-anchor="middle" x="349.136" y="-2489.2" font-family="Times,serif" font-size="11.00" fill="#c0c0c0">Fangcloud</text>
</g>
<g id="clust3" class="cluster">
<title>cluster_\Fangcloud\Api</title>
<path fill="none" stroke="#c0c0c0" d="M226.3167,-1816C226.3167,-1816 620.7639,-1816 620.7639,-1816 626.7639,-1816 632.7639,-1822 632.7639,-1828 632.7639,-1828 632.7639,-2463 632.7639,-2463 632.7639,-2469 626.7639,-2475 620.7639,-2475 620.7639,-2475 226.3167,-2475 226.3167,-2475 220.3167,-2475 214.3167,-2469 214.3167,-2463 214.3167,-2463 214.3167,-1828 214.3167,-1828 214.3167,-1822 220.3167,-1816 226.3167,-1816"/>
<text text-anchor="middle" x="423.5403" y="-2462.2" font-family="Times,serif" font-size="11.00" fill="#c0c0c0">Api</text>
</g>
<g id="clust4" class="cluster">
<title>cluster_\Fangcloud\Api\Collab</title>
<path fill="none" stroke="#c0c0c0" d="M495.8462,-2377C495.8462,-2377 602.8623,-2377 602.8623,-2377 608.8623,-2377 614.8623,-2383 614.8623,-2389 614.8623,-2389 614.8623,-2436 614.8623,-2436 614.8623,-2442 608.8623,-2448 602.8623,-2448 602.8623,-2448 495.8462,-2448 495.8462,-2448 489.8462,-2448 483.8462,-2442 483.8462,-2436 483.8462,-2436 483.8462,-2389 483.8462,-2389 483.8462,-2383 489.8462,-2377 495.8462,-2377"/>
<text text-anchor="middle" x="549.3542" y="-2435.2" font-family="Times,serif" font-size="11.00" fill="#c0c0c0">Collab</text>
</g>
<g id="clust5" class="cluster">
<title>cluster_\Fangcloud\Api\Comment</title>
<path fill="none" stroke="#c0c0c0" d="M492.5457,-2298C492.5457,-2298 606.1628,-2298 606.1628,-2298 612.1628,-2298 618.1628,-2304 618.1628,-2310 618.1628,-2310 618.1628,-2357 618.1628,-2357 618.1628,-2363 612.1628,-2369 606.1628,-2369 606.1628,-2369 492.5457,-2369 492.5457,-2369 486.5457,-2369 480.5457,-2363 480.5457,-2357 480.5457,-2357 480.5457,-2310 480.5457,-2310 480.5457,-2304 486.5457,-2298 492.5457,-2298"/>
<text text-anchor="middle" x="549.3542" y="-2356.2" font-family="Times,serif" font-size="11.00" fill="#c0c0c0">Comment</text>
</g>
<g id="clust6" class="cluster">
<title>cluster_\Fangcloud\Api\File</title>
<path fill="none" stroke="#c0c0c0" d="M502.4473,-2219C502.4473,-2219 596.2612,-2219 596.2612,-2219 602.2612,-2219 608.2612,-2225 608.2612,-2231 608.2612,-2231 608.2612,-2278 608.2612,-2278 608.2612,-2284 602.2612,-2290 596.2612,-2290 596.2612,-2290 502.4473,-2290 502.4473,-2290 496.4473,-2290 490.4473,-2284 490.4473,-2278 490.4473,-2278 490.4473,-2231 490.4473,-2231 490.4473,-2225 496.4473,-2219 502.4473,-2219"/>
<text text-anchor="middle" x="549.3542" y="-2277.2" font-family="Times,serif" font-size="11.00" fill="#c0c0c0">File</text>
</g>
<g id="clust7" class="cluster">
<title>cluster_\Fangcloud\Api\Folder</title>
<path fill="none" stroke="#c0c0c0" d="M495.8462,-2140C495.8462,-2140 602.8623,-2140 602.8623,-2140 608.8623,-2140 614.8623,-2146 614.8623,-2152 614.8623,-2152 614.8623,-2199 614.8623,-2199 614.8623,-2205 608.8623,-2211 602.8623,-2211 602.8623,-2211 495.8462,-2211 495.8462,-2211 489.8462,-2211 483.8462,-2205 483.8462,-2199 483.8462,-2199 483.8462,-2152 483.8462,-2152 483.8462,-2146 489.8462,-2140 495.8462,-2140"/>
<text text-anchor="middle" x="549.3542" y="-2198.2" font-family="Times,serif" font-size="11.00" fill="#c0c0c0">Folder</text>
</g>
<g id="clust8" class="cluster">
<title>cluster_\Fangcloud\Api\Item</title>
<path fill="none" stroke="#c0c0c0" d="M502.4473,-2061C502.4473,-2061 596.2612,-2061 596.2612,-2061 602.2612,-2061 608.2612,-2067 608.2612,-2073 608.2612,-2073 608.2612,-2120 608.2612,-2120 608.2612,-2126 602.2612,-2132 596.2612,-2132 596.2612,-2132 502.4473,-2132 502.4473,-2132 496.4473,-2132 490.4473,-2126 490.4473,-2120 490.4473,-2120 490.4473,-2073 490.4473,-2073 490.4473,-2067 496.4473,-2061 502.4473,-2061"/>
<text text-anchor="middle" x="549.3542" y="-2119.2" font-family="Times,serif" font-size="11.00" fill="#c0c0c0">Item</text>
</g>
<g id="clust9" class="cluster">
<title>cluster_\Fangcloud\Api\ShareLink</title>
<path fill="none" stroke="#c0c0c0" d="M485.9446,-1982C485.9446,-1982 612.7639,-1982 612.7639,-1982 618.7639,-1982 624.7639,-1988 624.7639,-1994 624.7639,-1994 624.7639,-2041 624.7639,-2041 624.7639,-2047 618.7639,-2053 612.7639,-2053 612.7639,-2053 485.9446,-2053 485.9446,-2053 479.9446,-2053 473.9446,-2047 473.9446,-2041 473.9446,-2041 473.9446,-1994 473.9446,-1994 473.9446,-1988 479.9446,-1982 485.9446,-1982"/>
<text text-anchor="middle" x="549.3542" y="-2040.2" font-family="Times,serif" font-size="11.00" fill="#c0c0c0">ShareLink</text>
</g>
<g id="clust10" class="cluster">
<title>cluster_\Fangcloud\Api\Trash</title>
<path fill="none" stroke="#c0c0c0" d="M499.1467,-1903C499.1467,-1903 599.5618,-1903 599.5618,-1903 605.5618,-1903 611.5618,-1909 611.5618,-1915 611.5618,-1915 611.5618,-1962 611.5618,-1962 611.5618,-1968 605.5618,-1974 599.5618,-1974 599.5618,-1974 499.1467,-1974 499.1467,-1974 493.1467,-1974 487.1467,-1968 487.1467,-1962 487.1467,-1962 487.1467,-1915 487.1467,-1915 487.1467,-1909 493.1467,-1903 499.1467,-1903"/>
<text text-anchor="middle" x="549.3542" y="-1961.2" font-family="Times,serif" font-size="11.00" fill="#c0c0c0">Trash</text>
</g>
<g id="clust11" class="cluster">
<title>cluster_\Fangcloud\Api\User</title>
<path fill="none" stroke="#c0c0c0" d="M502.4473,-1824C502.4473,-1824 596.2612,-1824 596.2612,-1824 602.2612,-1824 608.2612,-1830 608.2612,-1836 608.2612,-1836 608.2612,-1883 608.2612,-1883 608.2612,-1889 602.2612,-1895 596.2612,-1895 596.2612,-1895 502.4473,-1895 502.4473,-1895 496.4473,-1895 490.4473,-1889 490.4473,-1883 490.4473,-1883 490.4473,-1836 490.4473,-1836 490.4473,-1830 496.4473,-1824 502.4473,-1824"/>
<text text-anchor="middle" x="549.3542" y="-1882.2" font-family="Times,serif" font-size="11.00" fill="#c0c0c0">User</text>
</g>
<g id="clust12" class="cluster">
<title>cluster_\Fangcloud\Authentication</title>
<path fill="none" stroke="#c0c0c0" d="M509.0483,-1737C509.0483,-1737 589.6602,-1737 589.6602,-1737 595.6602,-1737 601.6602,-1743 601.6602,-1749 601.6602,-1749 601.6602,-1796 601.6602,-1796 601.6602,-1802 595.6602,-1808 589.6602,-1808 589.6602,-1808 509.0483,-1808 509.0483,-1808 503.0483,-1808 497.0483,-1802 497.0483,-1796 497.0483,-1796 497.0483,-1749 497.0483,-1749 497.0483,-1743 503.0483,-1737 509.0483,-1737"/>
<text text-anchor="middle" x="549.3542" y="-1795.2" font-family="Times,serif" font-size="11.00" fill="#c0c0c0">Authentication</text>
</g>
<g id="clust13" class="cluster">
<title>cluster_\Fangcloud\Download</title>
<path fill="none" stroke="#c0c0c0" d="M505.7478,-1658C505.7478,-1658 592.9607,-1658 592.9607,-1658 598.9607,-1658 604.9607,-1664 604.9607,-1670 604.9607,-1670 604.9607,-1717 604.9607,-1717 604.9607,-1723 598.9607,-1729 592.9607,-1729 592.9607,-1729 505.7478,-1729 505.7478,-1729 499.7478,-1729 493.7478,-1723 493.7478,-1717 493.7478,-1717 493.7478,-1670 493.7478,-1670 493.7478,-1664 499.7478,-1658 505.7478,-1658"/>
<text text-anchor="middle" x="549.3542" y="-1716.2" font-family="Times,serif" font-size="11.00" fill="#c0c0c0">Download</text>
</g>
<g id="clust14" class="cluster">
<title>cluster_\Fangcloud\Exception</title>
<path fill="none" stroke="#c0c0c0" d="M229.6172,-1255C229.6172,-1255 662.272,-1255 662.272,-1255 668.272,-1255 674.272,-1261 674.272,-1267 674.272,-1267 674.272,-1638 674.272,-1638 674.272,-1644 668.272,-1650 662.272,-1650 662.272,-1650 229.6172,-1650 229.6172,-1650 223.6172,-1650 217.6172,-1644 217.6172,-1638 217.6172,-1638 217.6172,-1267 217.6172,-1267 217.6172,-1261 223.6172,-1255 229.6172,-1255"/>
<text text-anchor="middle" x="445.9446" y="-1637.2" font-family="Times,serif" font-size="11.00" fill="#c0c0c0">Exception</text>
</g>
<g id="clust15" class="cluster">
<title>cluster_\Fangcloud\Http</title>
<path fill="none" stroke="#c0c0c0" d="M489.2451,-1068C489.2451,-1068 609.4634,-1068 609.4634,-1068 615.4634,-1068 621.4634,-1074 621.4634,-1080 621.4634,-1080 621.4634,-1235 621.4634,-1235 621.4634,-1241 615.4634,-1247 609.4634,-1247 609.4634,-1247 489.2451,-1247 489.2451,-1247 483.2451,-1247 477.2451,-1241 477.2451,-1235 477.2451,-1235 477.2451,-1080 477.2451,-1080 477.2451,-1074 483.2451,-1068 489.2451,-1068"/>
<text text-anchor="middle" x="549.3542" y="-1234.2" font-family="Times,serif" font-size="11.00" fill="#c0c0c0">Http</text>
</g>
<g id="clust16" class="cluster">
<title>cluster_\Fangcloud\HttpClient</title>
<path fill="none" stroke="#c0c0c0" d="M36,-908C36,-908 624.0645,-908 624.0645,-908 630.0645,-908 636.0645,-914 636.0645,-920 636.0645,-920 636.0645,-1048 636.0645,-1048 636.0645,-1054 630.0645,-1060 624.0645,-1060 624.0645,-1060 36,-1060 36,-1060 30,-1060 24,-1054 24,-1048 24,-1048 24,-920 24,-920 24,-914 30,-908 36,-908"/>
<text text-anchor="middle" x="330.0322" y="-1047.2" font-family="Times,serif" font-size="11.00" fill="#c0c0c0">HttpClient</text>
</g>
<g id="clust17" class="cluster">
<title>cluster_\Fangcloud\HttpClient\Guzzle</title>
<path fill="none" stroke="#c0c0c0" d="M482.644,-962C482.644,-962 616.0645,-962 616.0645,-962 622.0645,-962 628.0645,-968 628.0645,-974 628.0645,-974 628.0645,-1021 628.0645,-1021 628.0645,-1027 622.0645,-1033 616.0645,-1033 616.0645,-1033 482.644,-1033 482.644,-1033 476.644,-1033 470.644,-1027 470.644,-1021 470.644,-1021 470.644,-974 470.644,-974 470.644,-968 476.644,-962 482.644,-962"/>
<text text-anchor="middle" x="549.3542" y="-1020.2" font-family="Times,serif" font-size="11.00" fill="#c0c0c0">Guzzle</text>
</g>
<g id="clust18" class="cluster">
<title>cluster_\Fangcloud\PersistentData</title>
<path fill="none" stroke="#c0c0c0" d="M209.814,-721C209.814,-721 655.6709,-721 655.6709,-721 661.6709,-721 667.6709,-727 667.6709,-733 667.6709,-733 667.6709,-888 667.6709,-888 667.6709,-894 661.6709,-900 655.6709,-900 655.6709,-900 209.814,-900 209.814,-900 203.814,-900 197.814,-894 197.814,-888 197.814,-888 197.814,-733 197.814,-733 197.814,-727 203.814,-721 209.814,-721"/>
<text text-anchor="middle" x="432.7424" y="-887.2" font-family="Times,serif" font-size="11.00" fill="#c0c0c0">PersistentData</text>
</g>
<g id="clust19" class="cluster">
<title>cluster_\Fangcloud\RandomString</title>
<path fill="none" stroke="#c0c0c0" d="M209.814,-372C209.814,-372 658.9714,-372 658.9714,-372 664.9714,-372 670.9714,-378 670.9714,-384 670.9714,-384 670.9714,-701 670.9714,-701 670.9714,-707 664.9714,-713 658.9714,-713 658.9714,-713 209.814,-713 209.814,-713 203.814,-713 197.814,-707 197.814,-701 197.814,-701 197.814,-384 197.814,-384 197.814,-378 203.814,-372 209.814,-372"/>
<text text-anchor="middle" x="434.3927" y="-700.2" font-family="Times,serif" font-size="11.00" fill="#c0c0c0">RandomString</text>
</g>
<g id="clust20" class="cluster">
<title>cluster_\Fangcloud\Upload</title>
<path fill="none" stroke="#c0c0c0" d="M522.2505,-293C522.2505,-293 576.458,-293 576.458,-293 582.458,-293 588.458,-299 588.458,-305 588.458,-305 588.458,-352 588.458,-352 588.458,-358 582.458,-364 576.458,-364 576.458,-364 522.2505,-364 522.2505,-364 516.2505,-364 510.2505,-358 510.2505,-352 510.2505,-352 510.2505,-305 510.2505,-305 510.2505,-299 516.2505,-293 522.2505,-293"/>
<text text-anchor="middle" x="549.3542" y="-351.2" font-family="Times,serif" font-size="11.00" fill="#c0c0c0">Upload</text>
</g>
<g id="clust21" class="cluster">
<title>cluster_\Fangcloud\Util</title>
<path fill="none" stroke="#c0c0c0" d="M518.95,-214C518.95,-214 579.7585,-214 579.7585,-214 585.7585,-214 591.7585,-220 591.7585,-226 591.7585,-226 591.7585,-273 591.7585,-273 591.7585,-279 585.7585,-285 579.7585,-285 579.7585,-285 518.95,-285 518.95,-285 512.95,-285 506.95,-279 506.95,-273 506.95,-273 506.95,-226 506.95,-226 506.95,-220 512.95,-214 518.95,-214"/>
<text text-anchor="middle" x="549.3542" y="-272.2" font-family="Times,serif" font-size="11.00" fill="#c0c0c0">Util</text>
</g>
<!-- \\Fangcloud\\Api\\Collab\\YfyCollabClient -->
<g id="node1" class="node">
<title>\\Fangcloud\\Api\\Collab\\YfyCollabClient</title>
<polygon fill="none" stroke="#000000" points="606.8704,-2421 491.8381,-2421 491.8381,-2385 606.8704,-2385 606.8704,-2421"/>
<text text-anchor="middle" x="549.3542" y="-2399.7" font-family="Courier,monospace" font-size="11.00" fill="#000000">YfyCollabClient</text>
</g>
<!-- \\Fangcloud\\Api\\YfyBaseApiClient -->
<g id="node9" class="node">
<title>\\Fangcloud\\Api\\YfyBaseApiClient</title>
<polygon fill="none" stroke="#000000" points="343.743,-2144 222.5075,-2144 222.5075,-2108 343.743,-2108 343.743,-2144"/>
<text text-anchor="start" x="250.1199" y="-2128.2" font-family="Courier,monospace" font-size="11.00" fill="#000000">«abstract»</text>
<text text-anchor="start" x="230.3167" y="-2117.2" font-family="Courier,monospace" font-size="11.00" fill="#000000">YfyBaseApiClient</text>
</g>
<!-- \\Fangcloud\\Api\\Collab\\YfyCollabClient&#45;&gt;\\Fangcloud\\Api\\YfyBaseApiClient -->
<g id="edge1" class="edge">
<title>\\Fangcloud\\Api\\Collab\\YfyCollabClient&#45;&gt;\\Fangcloud\\Api\\YfyBaseApiClient</title>
<path fill="none" stroke="#000000" d="M491.6548,-2397.2718C471.4222,-2393.0301 449.5083,-2385.6875 432.4365,-2373 355.1432,-2315.557 309.7514,-2205.1536 291.9245,-2153.6829"/>
<polygon fill="none" stroke="#000000" points="295.2405,-2152.5626 288.7254,-2144.2076 288.6083,-2154.8018 295.2405,-2152.5626"/>
</g>
<!-- \\Fangcloud\\Api\\Comment\\YfyCommentClient -->
<g id="node2" class="node">
<title>\\Fangcloud\\Api\\Comment\\YfyCommentClient</title>
<polygon fill="none" stroke="#000000" points="609.972,-2342 488.7365,-2342 488.7365,-2306 609.972,-2306 609.972,-2342"/>
<text text-anchor="middle" x="549.3542" y="-2320.7" font-family="Courier,monospace" font-size="11.00" fill="#000000">YfyCommentClient</text>
</g>
<!-- \\Fangcloud\\Api\\Comment\\YfyCommentClient&#45;&gt;\\Fangcloud\\Api\\YfyBaseApiClient -->
<g id="edge2" class="edge">
<title>\\Fangcloud\\Api\\Comment\\YfyCommentClient&#45;&gt;\\Fangcloud\\Api\\YfyBaseApiClient</title>
<path fill="none" stroke="#000000" d="M488.6552,-2315.5578C469.6995,-2311.0988 449.343,-2304.312 432.4365,-2294 373.0113,-2257.7539 323.9052,-2190.45 299.5908,-2152.9699"/>
<polygon fill="none" stroke="#000000" points="302.2776,-2150.6733 293.9521,-2144.1207 296.3742,-2154.435 302.2776,-2150.6733"/>
</g>
<!-- \\Fangcloud\\Api\\File\\YfyFileClient -->
<g id="node3" class="node">
<title>\\Fangcloud\\Api\\File\\YfyFileClient</title>
<polygon fill="none" stroke="#000000" points="600.1684,-2263 498.5401,-2263 498.5401,-2227 600.1684,-2227 600.1684,-2263"/>
<text text-anchor="middle" x="549.3542" y="-2241.7" font-family="Courier,monospace" font-size="11.00" fill="#000000">YfyFileClient</text>
</g>
<!-- \\Fangcloud\\Api\\File\\YfyFileClient&#45;&gt;\\Fangcloud\\Api\\YfyBaseApiClient -->
<g id="edge3" class="edge">
<title>\\Fangcloud\\Api\\File\\YfyFileClient&#45;&gt;\\Fangcloud\\Api\\YfyBaseApiClient</title>
<path fill="none" stroke="#000000" d="M498.2568,-2235.2318C477.4054,-2230.3935 453.3317,-2223.6955 432.4365,-2215 390.5223,-2197.5575 346.3081,-2169.8808 316.9713,-2150.0215"/>
<polygon fill="none" stroke="#000000" points="318.5923,-2146.8897 308.3634,-2144.1292 314.6383,-2152.666 318.5923,-2146.8897"/>
</g>
<!-- \\Fangcloud\\Api\\Folder\\YfyFolderClient -->
<g id="node4" class="node">
<title>\\Fangcloud\\Api\\Folder\\YfyFolderClient</title>
<polygon fill="none" stroke="#000000" points="606.8704,-2184 491.8381,-2184 491.8381,-2148 606.8704,-2148 606.8704,-2184"/>
<text text-anchor="middle" x="549.3542" y="-2162.7" font-family="Courier,monospace" font-size="11.00" fill="#000000">YfyFolderClient</text>
</g>
<!-- \\Fangcloud\\Api\\Folder\\YfyFolderClient&#45;&gt;\\Fangcloud\\Api\\YfyBaseApiClient -->
<g id="edge4" class="edge">
<title>\\Fangcloud\\Api\\Folder\\YfyFolderClient&#45;&gt;\\Fangcloud\\Api\\YfyBaseApiClient</title>
<path fill="none" stroke="#000000" d="M491.5865,-2157.3206C451.2363,-2151.2581 397.1138,-2143.1264 354.1289,-2136.6681"/>
<polygon fill="none" stroke="#000000" points="354.4274,-2133.1737 344.0184,-2135.149 353.3873,-2140.096 354.4274,-2133.1737"/>
</g>
<!-- \\Fangcloud\\Api\\Item\\YfyItemClient -->
<g id="node5" class="node">
<title>\\Fangcloud\\Api\\Item\\YfyItemClient</title>
<polygon fill="none" stroke="#000000" points="600.1684,-2105 498.5401,-2105 498.5401,-2069 600.1684,-2069 600.1684,-2105"/>
<text text-anchor="middle" x="549.3542" y="-2083.7" font-family="Courier,monospace" font-size="11.00" fill="#000000">YfyItemClient</text>
</g>
<!-- \\Fangcloud\\Api\\Item\\YfyItemClient&#45;&gt;\\Fangcloud\\Api\\YfyBaseApiClient -->
<g id="edge5" class="edge">
<title>\\Fangcloud\\Api\\Item\\YfyItemClient&#45;&gt;\\Fangcloud\\Api\\YfyBaseApiClient</title>
<path fill="none" stroke="#000000" d="M498.3376,-2094.4734C457.35,-2100.4777 399.3251,-2108.9778 353.8523,-2115.6392"/>
<polygon fill="none" stroke="#000000" points="353.1502,-2112.2046 343.7631,-2117.1171 354.1648,-2119.1307 353.1502,-2112.2046"/>
</g>
<!-- \\Fangcloud\\Api\\ShareLink\\YfyShareLinkClient -->
<g id="node6" class="node">
<title>\\Fangcloud\\Api\\ShareLink\\YfyShareLinkClient</title>
<polygon fill="none" stroke="#000000" points="616.6737,-2026 482.0348,-2026 482.0348,-1990 616.6737,-1990 616.6737,-2026"/>
<text text-anchor="middle" x="549.3542" y="-2004.7" font-family="Courier,monospace" font-size="11.00" fill="#000000">YfyShareLinkClient</text>
</g>
<!-- \\Fangcloud\\Api\\ShareLink\\YfyShareLinkClient&#45;&gt;\\Fangcloud\\Api\\YfyBaseApiClient -->
<g id="edge6" class="edge">
<title>\\Fangcloud\\Api\\ShareLink\\YfyShareLinkClient&#45;&gt;\\Fangcloud\\Api\\YfyBaseApiClient</title>
<path fill="none" stroke="#000000" d="M505.3332,-2026.0096C483.354,-2035.1131 456.4051,-2046.4433 432.4365,-2057 398.1254,-2072.112 359.7356,-2089.8719 330.4752,-2103.5889"/>
<polygon fill="none" stroke="#000000" points="328.8763,-2100.473 321.3126,-2107.892 331.852,-2106.8091 328.8763,-2100.473"/>
</g>
<!-- \\Fangcloud\\Api\\Trash\\YfyTrashClient -->
<g id="node7" class="node">
<title>\\Fangcloud\\Api\\Trash\\YfyTrashClient</title>
<polygon fill="none" stroke="#000000" points="603.7701,-1947 494.9384,-1947 494.9384,-1911 603.7701,-1911 603.7701,-1947"/>
<text text-anchor="middle" x="549.3542" y="-1925.7" font-family="Courier,monospace" font-size="11.00" fill="#000000">YfyTrashClient</text>
</g>
<!-- \\Fangcloud\\Api\\Trash\\YfyTrashClient&#45;&gt;\\Fangcloud\\Api\\YfyBaseApiClient -->
<g id="edge7" class="edge">
<title>\\Fangcloud\\Api\\Trash\\YfyTrashClient&#45;&gt;\\Fangcloud\\Api\\YfyBaseApiClient</title>
<path fill="none" stroke="#000000" d="M495.071,-1946.7487C474.5544,-1954.7144 451.5612,-1965.2247 432.4365,-1978 380.3374,-2012.8021 330.9728,-2067.4771 304.1009,-2099.7254"/>
<polygon fill="none" stroke="#000000" points="301.1043,-2097.8585 297.4499,-2107.8032 306.5082,-2102.308 301.1043,-2097.8585"/>
</g>
<!-- \\Fangcloud\\Api\\User\\YfyUserClient -->
<g id="node8" class="node">
<title>\\Fangcloud\\Api\\User\\YfyUserClient</title>
<polygon fill="none" stroke="#000000" points="600.1684,-1868 498.5401,-1868 498.5401,-1832 600.1684,-1832 600.1684,-1868"/>
<text text-anchor="middle" x="549.3542" y="-1846.7" font-family="Courier,monospace" font-size="11.00" fill="#000000">YfyUserClient</text>
</g>
<!-- \\Fangcloud\\Api\\User\\YfyUserClient&#45;&gt;\\Fangcloud\\Api\\YfyBaseApiClient -->
<g id="edge8" class="edge">
<title>\\Fangcloud\\Api\\User\\YfyUserClient&#45;&gt;\\Fangcloud\\Api\\YfyBaseApiClient</title>
<path fill="none" stroke="#000000" d="M498.2858,-1864.0194C476.3722,-1871.8056 451.4863,-1883.1837 432.4365,-1899 364.1637,-1955.6844 315.6035,-2051.6386 294.6513,-2098.5396"/>
<polygon fill="none" stroke="#000000" points="291.4137,-2097.2077 290.6022,-2107.7714 297.8242,-2100.0194 291.4137,-2097.2077"/>
</g>
<!-- \\Fangcloud\\Authentication\\OAuthClient -->
<g id="node10" class="node">
<title>\\Fangcloud\\Authentication\\OAuthClient</title>
<polygon fill="none" stroke="#000000" points="593.4669,-1781 505.2416,-1781 505.2416,-1745 593.4669,-1745 593.4669,-1781"/>
<text text-anchor="middle" x="549.3542" y="-1759.7" font-family="Courier,monospace" font-size="11.00" fill="#000000">OAuthClient</text>
</g>
<!-- \\Fangcloud\\Download\\DownloadFile -->
<g id="node11" class="node">
<title>\\Fangcloud\\Download\\DownloadFile</title>
<polygon fill="none" stroke="#000000" points="597.0674,-1702 501.6411,-1702 501.6411,-1666 597.0674,-1666 597.0674,-1702"/>
<text text-anchor="middle" x="549.3542" y="-1680.7" font-family="Courier,monospace" font-size="11.00" fill="#000000">DownloadFile</text>
</g>
<!-- \\Fangcloud\\Exception\\YfyAuthorizationRequiredException -->
<g id="node12" class="node">
<title>\\Fangcloud\\Exception\\YfyAuthorizationRequiredException</title>
<polygon fill="none" stroke="#000000" points="666.1898,-1623 432.5187,-1623 432.5187,-1587 666.1898,-1587 666.1898,-1623"/>
<text text-anchor="middle" x="549.3542" y="-1601.7" font-family="Courier,monospace" font-size="11.00" fill="#000000">YfyAuthorizationRequiredException</text>
</g>
<!-- \\Fangcloud\\Exception\\YfySdkException -->
<g id="node17" class="node">
<title>\\Fangcloud\\Exception\\YfySdkException</title>
<polygon fill="none" stroke="#000000" points="340.6414,-1434 225.6091,-1434 225.6091,-1398 340.6414,-1398 340.6414,-1434"/>
<text text-anchor="middle" x="283.1252" y="-1412.7" font-family="Courier,monospace" font-size="11.00" fill="#000000">YfySdkException</text>
</g>
<!-- \\Fangcloud\\Exception\\YfyAuthorizationRequiredException&#45;&gt;\\Fangcloud\\Exception\\YfySdkException -->
<g id="edge9" class="edge">
<title>\\Fangcloud\\Exception\\YfyAuthorizationRequiredException&#45;&gt;\\Fangcloud\\Exception\\YfySdkException</title>
<path fill="none" stroke="#000000" d="M450.9959,-1586.9753C444.5416,-1584.3763 438.29,-1581.4025 432.4365,-1578 373.7538,-1543.8887 324.6802,-1479.223 300.0927,-1442.7556"/>
<polygon fill="none" stroke="#000000" points="302.8181,-1440.5321 294.3782,-1434.1276 296.982,-1444.3975 302.8181,-1440.5321"/>
</g>
<!-- \\Fangcloud\\Exception\\YfyInvalidGrantException -->
<g id="node13" class="node">
<title>\\Fangcloud\\Exception\\YfyInvalidGrantException</title>
<polygon fill="none" stroke="#000000" points="636.7806,-1569 461.9279,-1569 461.9279,-1533 636.7806,-1533 636.7806,-1569"/>
<text text-anchor="middle" x="549.3542" y="-1547.7" font-family="Courier,monospace" font-size="11.00" fill="#000000">YfyInvalidGrantException</text>
</g>
<!-- \\Fangcloud\\Exception\\YfyInvalidGrantException&#45;&gt;\\Fangcloud\\Exception\\YfySdkException -->
<g id="edge10" class="edge">
<title>\\Fangcloud\\Exception\\YfyInvalidGrantException&#45;&gt;\\Fangcloud\\Exception\\YfySdkException</title>
<path fill="none" stroke="#000000" d="M461.8753,-1534.8734C451.7487,-1531.8196 441.7296,-1528.2236 432.4365,-1524 385.5809,-1502.7047 338.6507,-1465.5239 310.2434,-1440.8328"/>
<polygon fill="none" stroke="#000000" points="312.5558,-1438.2054 302.7377,-1434.2234 307.9296,-1443.4589 312.5558,-1438.2054"/>
</g>
<!-- \\Fangcloud\\Exception\\YfyInvalidStateException -->
<g id="node14" class="node">
<title>\\Fangcloud\\Exception\\YfyInvalidStateException</title>
<polygon fill="none" stroke="#000000" points="636.7806,-1515 461.9279,-1515 461.9279,-1479 636.7806,-1479 636.7806,-1515"/>
<text text-anchor="middle" x="549.3542" y="-1493.7" font-family="Courier,monospace" font-size="11.00" fill="#000000">YfyInvalidStateException</text>
</g>
<!-- \\Fangcloud\\Exception\\YfyInvalidStateException&#45;&gt;\\Fangcloud\\Exception\\YfySdkException -->
<g id="edge11" class="edge">
<title>\\Fangcloud\\Exception\\YfyInvalidStateException&#45;&gt;\\Fangcloud\\Exception\\YfySdkException</title>
<path fill="none" stroke="#000000" d="M465.6867,-1478.9668C454.454,-1476.1703 443.126,-1473.1549 432.4365,-1470 400.8644,-1460.6819 366.2568,-1448.3065 338.3161,-1437.7538"/>
<polygon fill="none" stroke="#000000" points="339.3181,-1434.3903 328.7271,-1434.1053 336.8287,-1440.9328 339.3181,-1434.3903"/>
</g>
<!-- \\Fangcloud\\Exception\\YfyInvalidTokenException -->
<g id="node15" class="node">
<title>\\Fangcloud\\Exception\\YfyInvalidTokenException</title>
<polygon fill="none" stroke="#000000" points="636.7806,-1461 461.9279,-1461 461.9279,-1425 636.7806,-1425 636.7806,-1461"/>
<text text-anchor="middle" x="549.3542" y="-1439.7" font-family="Courier,monospace" font-size="11.00" fill="#000000">YfyInvalidTokenException</text>
</g>
<!-- \\Fangcloud\\Exception\\YfyInvalidTokenException&#45;&gt;\\Fangcloud\\Exception\\YfySdkException -->
<g id="edge12" class="edge">
<title>\\Fangcloud\\Exception\\YfyInvalidTokenException&#45;&gt;\\Fangcloud\\Exception\\YfySdkException</title>
<path fill="none" stroke="#000000" d="M461.8122,-1434.1218C425.8276,-1430.4724 384.7901,-1426.3105 351.1249,-1422.8963"/>
<polygon fill="none" stroke="#000000" points="351.2297,-1419.389 340.9276,-1421.8621 350.5234,-1426.3533 351.2297,-1419.389"/>
</g>
<!-- \\Fangcloud\\Exception\\YfyRateLimitException -->
<g id="node16" class="node">
<title>\\Fangcloud\\Exception\\YfyRateLimitException</title>
<polygon fill="none" stroke="#000000" points="626.4773,-1407 472.2312,-1407 472.2312,-1371 626.4773,-1371 626.4773,-1407"/>
<text text-anchor="middle" x="549.3542" y="-1385.7" font-family="Courier,monospace" font-size="11.00" fill="#000000">YfyRateLimitException</text>
</g>
<!-- \\Fangcloud\\Exception\\YfyRateLimitException&#45;&gt;\\Fangcloud\\Exception\\YfySdkException -->
<g id="edge13" class="edge">
<title>\\Fangcloud\\Exception\\YfyRateLimitException&#45;&gt;\\Fangcloud\\Exception\\YfySdkException</title>
<path fill="none" stroke="#000000" d="M471.9922,-1396.8458C433.6817,-1400.7311 387.8513,-1405.3791 350.9314,-1409.1233"/>
<polygon fill="none" stroke="#000000" points="350.3639,-1405.6629 340.7681,-1410.1541 351.0702,-1412.6271 350.3639,-1405.6629"/>
</g>
<!-- \\Exception -->
<g id="node43" class="node">
<title>\\Exception</title>
<ellipse fill="none" stroke="#000000" cx="82.907" cy="-18" rx="40.6162" ry="18"/>
<text text-anchor="middle" x="82.907" y="-13.8" font-family="Times,serif" font-size="14.00" fill="#c0c0c0">xception</text>
</g>
<!-- \\Fangcloud\\Exception\\YfySdkException&#45;&gt;\\Exception -->
<g id="edge14" class="edge">
<title>\\Fangcloud\\Exception\\YfySdkException&#45;&gt;\\Exception</title>
<path fill="none" stroke="#000000" d="M277.8498,-1397.8518C263.0106,-1346.1452 220.5135,-1193.4446 197.814,-1064 127.5166,-663.1276 92.5505,-167.8315 84.6587,-46.0245"/>
<polygon fill="none" stroke="#000000" points="88.1506,-45.7847 84.0179,-36.0291 81.1649,-46.2326 88.1506,-45.7847"/>
</g>
<!-- \\Fangcloud\\Exception\\YfyServerException -->
<g id="node18" class="node">
<title>\\Fangcloud\\Exception\\YfyServerException</title>
<polygon fill="none" stroke="#000000" points="616.6737,-1353 482.0348,-1353 482.0348,-1317 616.6737,-1317 616.6737,-1353"/>
<text text-anchor="middle" x="549.3542" y="-1331.7" font-family="Courier,monospace" font-size="11.00" fill="#000000">YfyServerException</text>
</g>
<!-- \\Fangcloud\\Exception\\YfyServerException&#45;&gt;\\Fangcloud\\Exception\\YfySdkException -->
<g id="edge15" class="edge">
<title>\\Fangcloud\\Exception\\YfyServerException&#45;&gt;\\Fangcloud\\Exception\\YfySdkException</title>
<path fill="none" stroke="#000000" d="M481.9116,-1349.1203C465.6151,-1352.9317 448.3209,-1357.3119 432.4365,-1362 400.8644,-1371.3181 366.2568,-1383.6935 338.3161,-1394.2462"/>
<polygon fill="none" stroke="#000000" points="336.8287,-1391.0672 328.7271,-1397.8947 339.3181,-1397.6097 336.8287,-1391.0672"/>
</g>
<!-- \\Fangcloud\\Exception\\YfyUnauthorizedException -->
<g id="node19" class="node">
<title>\\Fangcloud\\Exception\\YfyUnauthorizedException</title>
<polygon fill="none" stroke="#000000" points="636.7806,-1299 461.9279,-1299 461.9279,-1263 636.7806,-1263 636.7806,-1299"/>
<text text-anchor="middle" x="549.3542" y="-1277.7" font-family="Courier,monospace" font-size="11.00" fill="#000000">YfyUnauthorizedException</text>
</g>
<!-- \\Fangcloud\\Exception\\YfyUnauthorizedException&#45;&gt;\\Fangcloud\\Exception\\YfySdkException -->
<g id="edge16" class="edge">
<title>\\Fangcloud\\Exception\\YfyUnauthorizedException&#45;&gt;\\Fangcloud\\Exception\\YfySdkException</title>
<path fill="none" stroke="#000000" d="M461.8753,-1297.1266C451.7487,-1300.1804 441.7296,-1303.7764 432.4365,-1308 385.5809,-1329.2953 338.6507,-1366.4761 310.2434,-1391.1672"/>
<polygon fill="none" stroke="#000000" points="307.9296,-1388.5411 302.7377,-1397.7766 312.5558,-1393.7946 307.9296,-1388.5411"/>
</g>
<!-- \\Fangcloud\\Http\\YfyRawResponse -->
<g id="node20" class="node">
<title>\\Fangcloud\\Http\\YfyRawResponse</title>
<polygon fill="none" stroke="#000000" points="603.7701,-1220 494.9384,-1220 494.9384,-1184 603.7701,-1184 603.7701,-1220"/>
<text text-anchor="middle" x="549.3542" y="-1198.7" font-family="Courier,monospace" font-size="11.00" fill="#000000">YfyRawResponse</text>
</g>
<!-- \\Fangcloud\\Http\\YfyRequest -->
<g id="node21" class="node">
<title>\\Fangcloud\\Http\\YfyRequest</title>
<polygon fill="none" stroke="#000000" points="590.365,-1166 508.3435,-1166 508.3435,-1130 590.365,-1130 590.365,-1166"/>
<text text-anchor="middle" x="549.3542" y="-1144.7" font-family="Courier,monospace" font-size="11.00" fill="#000000">YfyRequest</text>
</g>
<!-- \\Fangcloud\\Http\\YfyRequestBuilder -->
<g id="node22" class="node">
<title>\\Fangcloud\\Http\\YfyRequestBuilder</title>
<polygon fill="none" stroke="#000000" points="613.5727,-1112 485.1358,-1112 485.1358,-1076 613.5727,-1076 613.5727,-1112"/>
<text text-anchor="middle" x="549.3542" y="-1090.7" font-family="Courier,monospace" font-size="11.00" fill="#000000">YfyRequestBuilder</text>
</g>
<!-- \\Fangcloud\\HttpClient\\Guzzle\\YfyGuzzleHttpClient -->
<g id="node23" class="node">
<title>\\Fangcloud\\HttpClient\\Guzzle\\YfyGuzzleHttpClient</title>
<polygon fill="none" stroke="#000000" points="620.2753,-1006 478.4332,-1006 478.4332,-970 620.2753,-970 620.2753,-1006"/>
<text text-anchor="middle" x="549.3542" y="-984.7" font-family="Courier,monospace" font-size="11.00" fill="#000000">YfyGuzzleHttpClient</text>
</g>
<!-- \\Fangcloud\\HttpClient\\AbstractYfyHttpClient -->
<g id="node24" class="node">
<title>\\Fangcloud\\HttpClient\\AbstractYfyHttpClient</title>
<polygon fill="none" stroke="#000000" points="360.2483,-1006 206.0022,-1006 206.0022,-970 360.2483,-970 360.2483,-1006"/>
<text text-anchor="start" x="250.1199" y="-990.2" font-family="Courier,monospace" font-size="11.00" fill="#000000">«abstract»</text>
<text text-anchor="start" x="213.814" y="-979.2" font-family="Courier,monospace" font-size="11.00" fill="#000000">AbstractYfyHttpClient</text>
</g>
<!-- \\Fangcloud\\HttpClient\\Guzzle\\YfyGuzzleHttpClient&#45;&gt;\\Fangcloud\\HttpClient\\AbstractYfyHttpClient -->
<g id="edge18" class="edge">
<title>\\Fangcloud\\HttpClient\\Guzzle\\YfyGuzzleHttpClient&#45;&gt;\\Fangcloud\\HttpClient\\AbstractYfyHttpClient</title>
<path fill="none" stroke="#000000" d="M478.3595,-988C445.273,-988 405.5863,-988 370.6605,-988"/>
<polygon fill="none" stroke="#000000" points="370.4678,-984.5001 360.4678,-988 370.4677,-991.5001 370.4678,-984.5001"/>
</g>
<!-- \\Fangcloud\\HttpClient\\YfyHttpClient -->
<g id="node26" class="node">
<title>\\Fangcloud\\HttpClient\\YfyHttpClient</title>
<polygon fill="none" stroke="#000000" points="133.7211,-1006 32.0928,-1006 32.0928,-970 133.7211,-970 133.7211,-1006"/>
<text text-anchor="middle" x="82.907" y="-984.7" font-family="Courier,monospace" font-size="11.00" fill="#000000">YfyHttpClient</text>
</g>
<!-- \\Fangcloud\\HttpClient\\AbstractYfyHttpClient&#45;&gt;\\Fangcloud\\HttpClient\\YfyHttpClient -->
<g id="edge17" class="edge">
<title>\\Fangcloud\\HttpClient\\AbstractYfyHttpClient&#45;&gt;\\Fangcloud\\HttpClient\\YfyHttpClient</title>
<path fill="none" stroke="#000000" stroke-dasharray="1,5" d="M206.002,-988C185.5522,-988 163.7495,-988 144.2634,-988"/>
<polygon fill="none" stroke="#000000" points="144.0028,-984.5001 134.0028,-988 144.0027,-991.5001 144.0028,-984.5001"/>
</g>
<!-- \\Fangcloud\\HttpClient\\YfyHttpClientFactory -->
<g id="node25" class="node">
<title>\\Fangcloud\\HttpClient\\YfyHttpClientFactory</title>
<polygon fill="none" stroke="#000000" points="623.3757,-952 475.3328,-952 475.3328,-916 623.3757,-916 623.3757,-952"/>
<text text-anchor="middle" x="549.3542" y="-930.7" font-family="Courier,monospace" font-size="11.00" fill="#000000">YfyHttpClientFactory</text>
</g>
<!-- \\Fangcloud\\PersistentData\\NoopPersistentDataHandler -->
<g id="node27" class="node">
<title>\\Fangcloud\\PersistentData\\NoopPersistentDataHandler</title>
<polygon fill="none" stroke="#000000" points="639.8811,-873 458.8274,-873 458.8274,-837 639.8811,-837 639.8811,-873"/>
<text text-anchor="middle" x="549.3542" y="-851.7" font-family="Courier,monospace" font-size="11.00" fill="#000000">NoopPersistentDataHandler</text>
</g>
<!-- \\Fangcloud\\PersistentData\\PersistentDataHandler -->
<g id="node30" class="node">
<title>\\Fangcloud\\PersistentData\\PersistentDataHandler</title>
<polygon fill="none" stroke="#000000" points="360.2483,-819 206.0022,-819 206.0022,-783 360.2483,-783 360.2483,-819"/>
<text text-anchor="middle" x="283.1252" y="-797.7" font-family="Courier,monospace" font-size="11.00" fill="#000000">PersistentDataHandler</text>
</g>
<!-- \\Fangcloud\\PersistentData\\NoopPersistentDataHandler&#45;&gt;\\Fangcloud\\PersistentData\\PersistentDataHandler -->
<g id="edge19" class="edge">
<title>\\Fangcloud\\PersistentData\\NoopPersistentDataHandler&#45;&gt;\\Fangcloud\\PersistentData\\PersistentDataHandler</title>
<path fill="none" stroke="#000000" stroke-dasharray="1,5" d="M460.3337,-836.9437C431.3969,-831.0744 399.3261,-824.5694 370.51,-818.7245"/>
<polygon fill="none" stroke="#000000" points="370.9598,-815.2445 360.4636,-816.6868 369.5682,-822.1048 370.9598,-815.2445"/>
</g>
<!-- \\Fangcloud\\PersistentData\\PersistentDataHandlerFactory -->
<g id="node28" class="node">
<title>\\Fangcloud\\PersistentData\\PersistentDataHandlerFactory</title>
<polygon fill="none" stroke="#000000" points="649.6844,-819 449.0241,-819 449.0241,-783 649.6844,-783 649.6844,-819"/>
<text text-anchor="middle" x="549.3542" y="-797.7" font-family="Courier,monospace" font-size="11.00" fill="#000000">PersistentDataHandlerFactory</text>
</g>
<!-- \\Fangcloud\\PersistentData\\YfySessionPersistentDataHandler -->
<g id="node29" class="node">
<title>\\Fangcloud\\PersistentData\\YfySessionPersistentDataHandler</title>
<polygon fill="none" stroke="#000000" points="659.4879,-765 439.2206,-765 439.2206,-729 659.4879,-729 659.4879,-765"/>
<text text-anchor="middle" x="549.3542" y="-743.7" font-family="Courier,monospace" font-size="11.00" fill="#000000">YfySessionPersistentDataHandler</text>
</g>
<!-- \\Fangcloud\\PersistentData\\YfySessionPersistentDataHandler&#45;&gt;\\Fangcloud\\PersistentData\\PersistentDataHandler -->
<g id="edge20" class="edge">
<title>\\Fangcloud\\PersistentData\\YfySessionPersistentDataHandler&#45;&gt;\\Fangcloud\\PersistentData\\PersistentDataHandler</title>
<path fill="none" stroke="#000000" stroke-dasharray="1,5" d="M460.3337,-765.0563C431.3969,-770.9256 399.3261,-777.4306 370.51,-783.2755"/>
<polygon fill="none" stroke="#000000" points="369.5682,-779.8952 360.4636,-785.3132 370.9598,-786.7555 369.5682,-779.8952"/>
</g>
<!-- \\Fangcloud\\RandomString\\McryptRandomStringGenerator -->
<g id="node31" class="node">
<title>\\Fangcloud\\RandomString\\McryptRandomStringGenerator</title>
<polygon fill="none" stroke="#000000" points="646.5834,-686 452.1251,-686 452.1251,-650 646.5834,-650 646.5834,-686"/>
<text text-anchor="middle" x="549.3542" y="-664.7" font-family="Courier,monospace" font-size="11.00" fill="#000000">McryptRandomStringGenerator</text>
</g>
<!-- \\Fangcloud\\RandomString\\RandomStringGenerator -->
<g id="node36" class="node">
<title>\\Fangcloud\\RandomString\\RandomStringGenerator</title>
<polygon fill="none" stroke="#000000" points="360.2483,-605 206.0022,-605 206.0022,-569 360.2483,-569 360.2483,-605"/>
<text text-anchor="middle" x="283.1252" y="-583.7" font-family="Courier,monospace" font-size="11.00" fill="#000000">RandomStringGenerator</text>
</g>
<!-- \\Fangcloud\\RandomString\\McryptRandomStringGenerator&#45;&gt;\\Fangcloud\\RandomString\\RandomStringGenerator -->
<g id="edge21" class="edge">
<title>\\Fangcloud\\RandomString\\McryptRandomStringGenerator&#45;&gt;\\Fangcloud\\RandomString\\RandomStringGenerator</title>
<path fill="none" stroke="#000000" stroke-dasharray="1,5" d="M465.6867,-649.9668C454.454,-647.1703 443.126,-644.1549 432.4365,-641 400.8644,-631.6819 366.2568,-619.3065 338.3161,-608.7538"/>
<polygon fill="none" stroke="#000000" points="339.3181,-605.3903 328.7271,-605.1053 336.8287,-611.9328 339.3181,-605.3903"/>
</g>
<!-- \\Fangcloud\\RandomString\\OpenSslRandomStringGenerator -->
<g id="node32" class="node">
<title>\\Fangcloud\\RandomString\\OpenSslRandomStringGenerator</title>
<polygon fill="none" stroke="#000000" points="649.6844,-632 449.0241,-632 449.0241,-596 649.6844,-596 649.6844,-632"/>
<text text-anchor="middle" x="549.3542" y="-610.7" font-family="Courier,monospace" font-size="11.00" fill="#000000">OpenSslRandomStringGenerator</text>
</g>
<!-- \\Fangcloud\\RandomString\\OpenSslRandomStringGenerator&#45;&gt;\\Fangcloud\\RandomString\\RandomStringGenerator -->
<g id="edge22" class="edge">
<title>\\Fangcloud\\RandomString\\OpenSslRandomStringGenerator&#45;&gt;\\Fangcloud\\RandomString\\RandomStringGenerator</title>
<path fill="none" stroke="#000000" stroke-dasharray="1,5" d="M448.7045,-603.7925C422.9503,-601.1806 395.4695,-598.3936 370.447,-595.8559"/>
<polygon fill="none" stroke="#000000" points="370.5575,-592.3492 360.2554,-594.8223 369.8512,-599.3135 370.5575,-592.3492"/>
</g>
<!-- \\Fangcloud\\RandomString\\RandomBytesRandomStringGenerator -->
<g id="node33" class="node">
<title>\\Fangcloud\\RandomString\\RandomBytesRandomStringGenerator</title>
<polygon fill="none" stroke="#000000" points="663.0887,-578 435.6198,-578 435.6198,-542 663.0887,-542 663.0887,-578"/>
<text text-anchor="middle" x="549.3542" y="-556.7" font-family="Courier,monospace" font-size="11.00" fill="#000000">RandomBytesRandomStringGenerator</text>
</g>
<!-- \\Fangcloud\\RandomString\\RandomBytesRandomStringGenerator&#45;&gt;\\Fangcloud\\RandomString\\RandomStringGenerator -->
<g id="edge23" class="edge">
<title>\\Fangcloud\\RandomString\\RandomBytesRandomStringGenerator&#45;&gt;\\Fangcloud\\RandomString\\RandomStringGenerator</title>
<path fill="none" stroke="#000000" stroke-dasharray="1,5" d="M435.677,-571.5287C413.8152,-573.7459 391.2386,-576.0355 370.3746,-578.1515"/>
<polygon fill="none" stroke="#000000" points="369.8763,-574.684 360.2805,-579.1752 370.5827,-581.6482 369.8763,-574.684"/>
</g>
<!-- \\Fangcloud\\RandomString\\RandomStringGeneratorFactory -->
<g id="node34" class="node">
<title>\\Fangcloud\\RandomString\\RandomStringGeneratorFactory</title>
<polygon fill="none" stroke="#000000" points="649.6844,-524 449.0241,-524 449.0241,-488 649.6844,-488 649.6844,-524"/>
<text text-anchor="middle" x="549.3542" y="-502.7" font-family="Courier,monospace" font-size="11.00" fill="#000000">RandomStringGeneratorFactory</text>
</g>
<!-- \\Fangcloud\\RandomString\\UrandomRandomStringGenerator -->
<g id="node35" class="node">
<title>\\Fangcloud\\RandomString\\UrandomRandomStringGenerator</title>
<polygon fill="none" stroke="#000000" points="649.6844,-470 449.0241,-470 449.0241,-434 649.6844,-434 649.6844,-470"/>
<text text-anchor="middle" x="549.3542" y="-448.7" font-family="Courier,monospace" font-size="11.00" fill="#000000">UrandomRandomStringGenerator</text>
</g>
<!-- \\Fangcloud\\RandomString\\UrandomRandomStringGenerator&#45;&gt;\\Fangcloud\\RandomString\\RandomStringGenerator -->
<g id="edge24" class="edge">
<title>\\Fangcloud\\RandomString\\UrandomRandomStringGenerator&#45;&gt;\\Fangcloud\\RandomString\\RandomStringGenerator</title>
<path fill="none" stroke="#000000" stroke-dasharray="1,5" d="M455.694,-470.0648C447.6895,-472.6743 439.8331,-475.6383 432.4365,-479 385.5809,-500.2953 338.6507,-537.4761 310.2434,-562.1672"/>
<polygon fill="none" stroke="#000000" points="307.9296,-559.5411 302.7377,-568.7766 312.5558,-564.7946 307.9296,-559.5411"/>
</g>
<!-- \\Fangcloud\\RandomString\\RandomStringGeneratorTrait -->
<g id="node37" class="node">
<title>\\Fangcloud\\RandomString\\RandomStringGeneratorTrait</title>
<polygon fill="none" stroke="#000000" points="642.9825,-416 455.726,-416 455.726,-380 642.9825,-380 642.9825,-416"/>
<text text-anchor="middle" x="549.3542" y="-394.7" font-family="Courier,monospace" font-size="11.00" fill="#000000">RandomStringGeneratorTrait</text>
</g>
<!-- \\Fangcloud\\Upload\\YfyFile -->
<g id="node38" class="node">
<title>\\Fangcloud\\Upload\\YfyFile</title>
<polygon fill="none" stroke="#000000" points="580.5621,-337 518.1464,-337 518.1464,-301 580.5621,-301 580.5621,-337"/>
<text text-anchor="middle" x="549.3542" y="-315.7" font-family="Courier,monospace" font-size="11.00" fill="#000000">YfyFile</text>
</g>
<!-- \\Fangcloud\\Util\\HttpUtil -->
<g id="node39" class="node">
<title>\\Fangcloud\\Util\\HttpUtil</title>
<polygon fill="none" stroke="#000000" points="583.6631,-258 515.0454,-258 515.0454,-222 583.6631,-222 583.6631,-258"/>
<text text-anchor="middle" x="549.3542" y="-236.7" font-family="Courier,monospace" font-size="11.00" fill="#000000">HttpUtil</text>
</g>
<!-- \\Fangcloud\\YfyAppInfo -->
<g id="node40" class="node">
<title>\\Fangcloud\\YfyAppInfo</title>
<polygon fill="none" stroke="#000000" points="590.365,-204 508.3435,-204 508.3435,-168 590.365,-168 590.365,-204"/>
<text text-anchor="middle" x="549.3542" y="-182.7" font-family="Courier,monospace" font-size="11.00" fill="#000000">YfyAppInfo</text>
</g>
<!-- \\Fangcloud\\YfyClient -->
<g id="node41" class="node">
<title>\\Fangcloud\\YfyClient</title>
<polygon fill="none" stroke="#000000" points="587.265,-150 511.4435,-150 511.4435,-114 587.265,-114 587.265,-150"/>
<text text-anchor="middle" x="549.3542" y="-128.7" font-family="Courier,monospace" font-size="11.00" fill="#000000">YfyClient</text>
</g>
<!-- \\Fangcloud\\YfyContext -->
<g id="node42" class="node">
<title>\\Fangcloud\\YfyContext</title>
<polygon fill="none" stroke="#000000" points="590.365,-96 508.3435,-96 508.3435,-60 590.365,-60 590.365,-96"/>
<text text-anchor="middle" x="549.3542" y="-74.7" font-family="Courier,monospace" font-size="11.00" fill="#000000">YfyContext</text>
</g>
</g>
</svg>
